<svg xmlns="http://www.w3.org/2000/svg" xmlns:xlink="http://www.w3.org/1999/xlink" width="1080" zoomAndPan="magnify" viewBox="0 0 810 809.999993" height="1080" preserveAspectRatio="xMidYMid meet" version="1.0"><rect x="-81" width="972" fill="#ffffff" y="-80.999999" height="971.999992" fill-opacity="1"/><rect x="-81" width="972" fill="#ffffff" y="-80.999999" height="971.999992" fill-opacity="1"/><path fill="#ffc2a1" d="M 434.445312 475.695312 C 432.433594 476.890625 406.675781 493.71875 403.75 495.023438 C 400.828125 496.328125 397.101562 485.921875 389.785156 468.382812 C 382.464844 450.84375 370.300781 415.4375 364.28125 412.191406 C 358.265625 408.941406 352.59375 407.488281 348.050781 396.28125 C 345.382812 389.683594 343.882812 384.054688 342.3125 379.738281 C 341.535156 377.125 340.253906 374.792969 338.46875 372.734375 C 334.578125 368.84375 330.019531 372.25 324.660156 374.195312 C 319.300781 376.140625 321.089844 368.84375 321.089844 368.84375 C 321.089844 368.84375 316.226562 373.871094 311.511719 371.4375 C 307.847656 369.542969 309.890625 365.78125 310.964844 364.203125 C 309.644531 365.847656 306.097656 369.597656 302.253906 368.191406 C 297.390625 366.40625 299.496094 356.65625 305.671875 348.863281 C 309.679688 343.796875 311.5 342.433594 310.617188 341.027344 C 309.8125 340.101562 308.867188 339.355469 307.78125 338.78125 C 307.480469 338.582031 307.15625 338.367188 306.800781 338.144531 C 300.796875 334.253906 310.691406 326.613281 322.71875 319.957031 C 334.75 313.304688 338.628906 309.71875 347.730469 313.9375 C 356.828125 318.15625 366.890625 324.824219 370.304688 333.109375 C 373.722656 341.394531 380.535156 361.691406 387.1875 381.175781 C 393.839844 400.65625 415.613281 428.605469 431.847656 447.929688 C 448.082031 467.257812 446.433594 468.503906 434.445312 475.695312 Z M 434.445312 475.695312 " fill-opacity="1" fill-rule="nonzero"/><path fill="#feaaa0" d="M 450.699219 469.847656 C 444.847656 461.078125 444.929688 459.617188 440.625 463.027344 C 436.320312 466.4375 422.554688 478.980469 410.863281 485.925781 C 399.171875 492.867188 394.421875 491.527344 397.222656 496.277344 C 400.027344 501.027344 416.328125 513.433594 424.632812 523.925781 C 432.941406 534.417969 432.378906 545.113281 448.019531 549.746094 C 463.65625 554.378906 462.636719 518.082031 462.390625 515.15625 C 462.144531 512.230469 460.445312 482.757812 460.445312 482.757812 Z M 450.699219 469.847656 " fill-opacity="1" fill-rule="nonzero"/><path fill="#000000" d="M 450.699219 469.847656 C 444.847656 461.078125 444.929688 459.617188 440.625 463.027344 C 436.320312 466.4375 422.554688 478.980469 410.863281 485.925781 C 399.171875 492.867188 394.421875 491.527344 397.222656 496.277344 C 400.027344 501.027344 416.328125 513.433594 424.632812 523.925781 C 432.941406 534.417969 432.378906 545.113281 448.019531 549.746094 C 463.65625 554.378906 462.636719 518.082031 462.390625 515.15625 C 462.144531 512.230469 460.445312 482.757812 460.445312 482.757812 Z M 450.699219 469.847656 " fill-opacity="0.3" fill-rule="nonzero"/><path fill="#435465" d="M 374.972656 563.097656 L 391.148438 558.777344 L 435.054688 723.167969 L 418.875 727.488281 Z M 374.972656 563.097656 " fill-opacity="1" fill-rule="nonzero"/><path fill="#96a5a9" d="M 356.164062 632.574219 C 355.605469 640.515625 353.964844 646.5 350.605469 651.078125 C 342.3125 662.417969 323.476562 665.199219 284.386719 667.980469 C 257.320312 670.03125 230.230469 670.417969 203.117188 669.136719 C 176.003906 667.859375 149.066406 664.929688 122.316406 660.34375 C 65.304688 650.839844 66.769531 626 75.546875 589.464844 C 84.320312 552.929688 66.769531 459.382812 52.890625 434.527344 C 27.847656 389.734375 43.390625 327.835938 139.855469 323.449219 C 236.320312 319.0625 259.699219 380.457031 271.394531 412.613281 C 283.089844 444.765625 288.9375 501.765625 286.019531 539.03125 C 285.464844 546.109375 285.148438 552.183594 285.210938 557.433594 C 285.523438 579.808594 292.996094 587.066406 319.621094 592.390625 C 352.515625 598.957031 358.121094 604.964844 356.164062 632.574219 Z M 356.164062 632.574219 " fill-opacity="1" fill-rule="nonzero"/><path fill="#ffc2a1" d="M 226.574219 437.042969 C 206.757812 446.464844 187.921875 431.515625 173.628906 420.152344 C 159.339844 408.785156 149.589844 394.492188 158.042969 393.523438 C 158.890625 393.445312 159.691406 393.21875 160.453125 392.84375 C 161.21875 392.46875 161.886719 391.96875 162.464844 391.34375 C 166.449219 387.058594 166.09375 377.144531 163.558594 366.234375 C 160.316406 352.265625 169.558594 353.308594 180.773438 363.640625 C 188.882812 371.101562 213.253906 370.460938 213.253906 370.460938 C 213.253906 370.460938 214.550781 379.472656 226.40625 390.449219 C 226.464844 390.503906 226.519531 390.546875 226.570312 390.609375 C 238.585938 401.640625 246.378906 427.621094 226.574219 437.042969 Z M 226.574219 437.042969 " fill-opacity="1" fill-rule="nonzero"/><path fill="#000000" d="M 226.40625 390.441406 C 225.816406 391.296875 225.167969 392.109375 224.46875 392.878906 C 223.765625 393.648438 223.019531 394.367188 222.222656 395.035156 C 221.425781 395.703125 220.585938 396.316406 219.707031 396.871094 C 218.828125 397.429688 217.914062 397.921875 216.96875 398.355469 C 216.023438 398.789062 215.054688 399.160156 214.058594 399.460938 C 213.0625 399.765625 212.050781 400 211.023438 400.167969 C 210 400.335938 208.964844 400.4375 207.925781 400.464844 C 206.886719 400.492188 205.847656 400.453125 204.8125 400.34375 C 187.609375 399.207031 178.003906 400.53125 162.464844 391.34375 C 166.449219 387.058594 166.09375 377.144531 163.558594 366.234375 C 160.316406 352.265625 169.558594 353.308594 180.773438 363.640625 C 188.882812 371.101562 213.253906 370.460938 213.253906 370.460938 C 213.253906 370.460938 214.542969 379.464844 226.40625 390.441406 Z M 226.40625 390.441406 " fill-opacity="0.2" fill-rule="nonzero"/><path fill="#754c24" d="M 175.902344 369.804688 C 156.089844 367.859375 141.476562 363.316406 126.859375 342.84375 C 112.242188 322.375 111.917969 291.527344 118.414062 277.234375 C 124.910156 262.945312 131.570312 258.722656 131.570312 258.722656 C 129.785156 258.945312 128.078125 259.429688 126.441406 260.175781 C 124.808594 260.925781 123.324219 261.898438 121.988281 263.101562 C 117.933594 266.996094 115.011719 260.019531 122.796875 255.957031 C 130.582031 251.890625 135.304688 253.847656 135.304688 253.847656 C 135.304688 253.847656 130.597656 239.554688 142.285156 233.222656 C 153.972656 226.890625 140.5 245.890625 141.148438 250.925781 C 141.148438 250.925781 148.296875 240.855469 169.894531 237.28125 C 191.496094 233.710938 215.207031 239.878906 228.847656 249.460938 C 242.484375 259.046875 239.566406 267.164062 233.0625 279.34375 C 226.558594 291.523438 193.761719 327.578125 193.113281 336.507812 C 192.464844 345.441406 195.546875 368.175781 188.894531 369.152344 C 184.582031 369.746094 180.253906 369.960938 175.902344 369.804688 Z M 175.902344 369.804688 " fill-opacity="1" fill-rule="nonzero"/><path fill="#ffc2a1" d="M 146.023438 339.601562 C 138.257812 338.40625 130.269531 343.496094 133.355469 358.441406 C 136.441406 373.386719 156.921875 379.632812 164.789062 372.53125 C 164.789062 372.53125 170.058594 384.097656 193.929688 390.109375 C 217.800781 396.117188 236.152344 390.269531 252.394531 377.117188 C 268.636719 363.964844 272.695312 343.664062 266.359375 333.269531 C 260.027344 322.875 254.667969 308.421875 254.34375 297.542969 C 254.015625 286.660156 242.179688 265.710938 238.683594 262.460938 C 235.1875 259.214844 234.367188 266.839844 226.574219 271.558594 C 218.777344 276.273438 203.675781 288.445312 183.050781 293.96875 C 162.421875 299.488281 158.039062 296.886719 163.398438 293.644531 C 168.757812 290.398438 169.730469 278.214844 169.730469 278.214844 C 169.730469 278.214844 155.335938 289.007812 154.902344 300.90625 C 154.464844 312.808594 154.757812 322.316406 159.175781 333.269531 C 163.597656 344.222656 154.46875 340.902344 146.023438 339.601562 Z M 146.023438 339.601562 " fill-opacity="1" fill-rule="nonzero"/><path fill="#feaaa0" d="M 243.949219 343.824219 C 236.078125 339.445312 224.785156 346.210938 222.839844 355.816406 C 220.890625 365.425781 221.390625 374.785156 238.515625 369.859375 C 255.644531 364.9375 254.179688 349.507812 243.949219 343.824219 Z M 243.949219 343.824219 " fill-opacity="0.7" fill-rule="nonzero"/><path fill="#ffc2a1" d="M 241.921875 410.410156 C 242.164062 399.933594 245.328125 396.523438 255.074219 401.394531 C 264.820312 406.269531 268.472656 411.628906 273.832031 434.039062 C 279.191406 456.449219 276.996094 471.550781 273.832031 482.269531 C 270.664062 492.992188 258.726562 494.960938 252.636719 496.53125 C 246.546875 498.105469 248.257812 482.269531 248.496094 455.960938 C 248.730469 440.425781 246.539062 425.242188 241.921875 410.410156 Z M 241.921875 410.410156 " fill-opacity="1" fill-rule="nonzero"/><path fill="#000000" d="M 241.921875 410.410156 C 242.164062 399.933594 245.328125 396.523438 255.074219 401.394531 C 264.820312 406.269531 268.472656 411.628906 273.832031 434.039062 C 279.191406 456.449219 276.996094 471.550781 273.832031 482.269531 C 270.664062 492.992188 258.726562 494.960938 252.636719 496.53125 C 246.546875 498.105469 248.257812 482.269531 248.496094 455.960938 C 248.730469 440.425781 246.539062 425.242188 241.921875 410.410156 Z M 241.921875 410.410156 " fill-opacity="0.2" fill-rule="nonzero"/><path fill="#ffc2a1" d="M 251.546875 479.101562 C 258.726562 458.15625 263.113281 452.070312 270.421875 447.925781 C 277.730469 443.78125 273.59375 438.910156 269.207031 432.089844 C 264.816406 425.269531 265.984375 414.308594 274.414062 415.769531 C 274.414062 415.769531 271.394531 407.484375 282.847656 407.484375 C 294.300781 407.484375 295.757812 411.863281 295.757812 411.863281 C 295.757812 411.863281 308.914062 418.925781 308.667969 432.8125 C 308.425781 446.699219 302.578125 453.765625 302.578125 453.765625 C 302.578125 453.765625 305.5 473.007812 293.566406 488.597656 C 281.632812 504.191406 264.578125 507.355469 256.539062 504.433594 C 248.5 501.507812 251.546875 479.101562 251.546875 479.101562 Z M 251.546875 479.101562 " fill-opacity="1" fill-rule="nonzero"/><path fill="#fff7e8" d="M 136.691406 399.214844 C 145.558594 395.195312 154.65625 391.796875 163.992188 389.027344 C 163.992188 389.027344 163.339844 398.960938 176.449219 408.460938 C 189.554688 417.960938 211.484375 425.269531 226.089844 418.449219 C 240.699219 411.628906 228.4375 392.472656 228.4375 392.472656 C 234.339844 392.753906 240.054688 393.945312 245.578125 396.042969 C 254.347656 399.449219 258.570312 408.953125 259.503906 424.785156 C 260.4375 440.621094 260.925781 468.878906 260.925781 482.761719 C 260.925781 496.648438 265.554688 528.316406 265.554688 528.316406 L 112.570312 528.316406 C 112.570312 528.316406 110.324219 486.417969 114.371094 451.824219 C 118.414062 417.234375 122.804688 405.683594 136.691406 399.214844 Z M 136.691406 399.214844 " fill-opacity="1" fill-rule="nonzero"/><path fill="#96a5a9" d="M 218.535156 485.433594 C 184.671875 488.851562 154.714844 485.433594 152.523438 449.871094 C 150.328125 414.308594 155.246094 390.09375 163.988281 389.023438 C 169.089844 388.410156 169.90625 396.203125 178.667969 406.027344 C 183.519531 410.066406 189.011719 412.828125 195.148438 414.3125 C 205.632812 416.992188 216.105469 418.691406 224.871094 411.390625 C 231.90625 405.53125 229.464844 395.941406 228.4375 392.480469 C 236.242188 397.34375 259.917969 432.167969 262.71875 454.632812 C 265.585938 477.628906 252.398438 482.027344 218.535156 485.433594 Z M 218.535156 485.433594 " fill-opacity="1" fill-rule="nonzero"/><path fill="#fff7e8" d="M 218.535156 485.433594 C 184.671875 488.851562 154.714844 485.433594 152.523438 449.871094 C 150.328125 414.308594 155.246094 390.09375 163.988281 389.023438 C 169.089844 388.410156 169.90625 396.203125 178.667969 406.027344 C 183.519531 410.066406 189.011719 412.828125 195.148438 414.3125 C 205.632812 416.992188 216.105469 418.691406 224.871094 411.390625 C 231.90625 405.53125 229.464844 395.941406 228.4375 392.480469 C 236.242188 397.34375 259.917969 432.167969 262.71875 454.632812 C 265.585938 477.628906 252.398438 482.027344 218.535156 485.433594 Z M 218.535156 485.433594 " fill-opacity="0.4" fill-rule="nonzero"/><path fill="#ffc2a1" d="M 218.121094 439.65625 C 211.625 451.378906 204.644531 451.582031 204.644531 451.582031 C 205.382812 460.589844 193.683594 491.773438 181.019531 505.417969 C 168.359375 519.0625 145.449219 527.089844 131.078125 510.53125 C 116.710938 493.976562 111.597656 470.335938 111.941406 452.550781 C 112.285156 434.765625 115 416.992188 123.53125 408.460938 C 132.0625 399.929688 138.871094 401.640625 144.964844 407.488281 C 151.0625 413.335938 157.820312 433.023438 159.324219 451.253906 C 159.335938 451.28125 159.339844 451.304688 159.335938 451.332031 C 159.546875 453.957031 159.824219 457.828125 159.824219 457.828125 C 159.824219 457.828125 159.855469 457.796875 159.867188 457.796875 C 162.734375 455.511719 165.300781 452.925781 167.558594 450.039062 C 171.402344 445.160156 180.691406 437.722656 180.691406 437.722656 C 180.15625 435.992188 179.914062 434.222656 179.960938 432.410156 C 179.882812 428.679688 182.070312 421.125 182.808594 416.746094 C 183.542969 412.371094 191.417969 403.507812 196.285156 403.59375 C 196.945312 403.570312 197.597656 403.628906 198.246094 403.765625 C 198.894531 403.902344 199.515625 404.117188 200.109375 404.40625 C 200.703125 404.695312 201.253906 405.054688 201.761719 405.480469 C 202.269531 405.90625 202.714844 406.386719 203.105469 406.921875 C 203.105469 406.921875 207.894531 406.027344 209.847656 408.058594 C 210.417969 408.636719 210.839844 409.308594 211.109375 410.074219 C 211.378906 410.839844 211.472656 411.628906 211.390625 412.4375 C 212.21875 412.316406 213.03125 412.382812 213.828125 412.640625 C 214.628906 412.898438 215.328125 413.316406 215.933594 413.894531 C 217.617188 415.332031 218.757812 417.117188 219.347656 419.25 C 224.710938 419.75 224.621094 427.945312 218.121094 439.65625 Z M 218.121094 439.65625 " fill-opacity="1" fill-rule="nonzero"/><path fill="#000000" d="M 159.832031 457.832031 C 156.414062 461.074219 151.800781 468.699219 147.324219 472.925781 C 138.28125 481.480469 134.820312 494.855469 134.820312 494.855469 C 134.820312 494.855469 130.925781 484.3125 142.441406 468.382812 C 147.222656 461.839844 152.851562 456.132812 159.324219 451.257812 C 159.332031 451.28125 159.335938 451.308594 159.335938 451.335938 C 159.550781 453.957031 159.832031 457.832031 159.832031 457.832031 Z M 159.832031 457.832031 " fill-opacity="0.2" fill-rule="nonzero"/><path fill="#fff7e8" d="M 126.210938 558.03125 C 112.082031 556.570312 109.15625 581.414062 116.464844 603.339844 C 123.773438 625.261719 132.542969 631.597656 172.496094 633.546875 C 212.445312 635.496094 239.980469 626.238281 251.546875 605.289062 C 263.113281 584.339844 259.492188 561.441406 259.492188 561.441406 Z M 126.210938 558.03125 " fill-opacity="1" fill-rule="nonzero"/><path fill="#96a5a9" d="M 277.085938 630.710938 C 275.625 649.648438 264.246094 645.5625 252.878906 644.589844 C 245.285156 643.941406 241.601562 640.535156 240.105469 634.664062 C 239.328125 631.191406 239.039062 627.675781 239.234375 624.121094 C 239.570312 611.785156 239.570312 583.851562 239.234375 568.261719 C 239.234375 568.261719 238.8125 566.65625 238.421875 564.613281 C 237.742188 561.007812 237.160156 556.027344 239.214844 556.238281 C 241.882812 556.507812 266.535156 556.773438 274.574219 561.710938 C 276.273438 562.75 277.234375 564 277.085938 565.496094 C 276.785156 568.644531 276.910156 575.6875 277.097656 584.296875 C 277.429688 599.179688 278 618.710938 277.085938 630.710938 Z M 277.085938 630.710938 " fill-opacity="1" fill-rule="nonzero"/><path fill="#000000" d="M 356.164062 632.574219 C 355.605469 640.515625 353.964844 646.5 350.605469 651.078125 C 350.046875 650.421875 349.367188 649.921875 348.578125 649.578125 C 347.785156 649.238281 346.957031 649.085938 346.09375 649.128906 C 342.6875 649.941406 340.578125 654.65625 335.867188 657.257812 C 328.917969 660.539062 321.609375 662.429688 313.941406 662.933594 C 309.183594 663.046875 303.007812 664.152344 296.386719 662.699219 C 295.683594 660.488281 294.859375 657.996094 293.808594 655.21875 C 292.691406 652.0625 291.296875 649.027344 289.628906 646.121094 C 287.960938 643.214844 286.042969 640.484375 283.878906 637.925781 C 281.714844 635.367188 279.339844 633.023438 276.753906 630.894531 C 274.164062 628.765625 271.40625 626.886719 268.476562 625.261719 L 269.167969 583.882812 L 269.527344 562.109375 L 269.6875 552.183594 C 269.6875 552.183594 278.855469 555.398438 285.207031 557.421875 C 285.519531 579.796875 292.992188 587.054688 319.617188 592.378906 C 352.515625 598.957031 358.121094 604.964844 356.164062 632.574219 Z M 356.164062 632.574219 " fill-opacity="0.2" fill-rule="nonzero"/><path fill="#ffc2a1" d="M 283.816406 565.824219 C 256.535156 564.394531 271.882812 565.582031 269.445312 582.632812 C 267.011719 599.683594 259.703125 611.136719 269.445312 614.300781 C 279.1875 617.46875 292.101562 617 300.382812 633.800781 C 308.664062 650.597656 322.308594 665.703125 343.5 678.125 C 364.695312 690.546875 359.820312 696.152344 359.820312 696.152344 L 395.875 681.777344 C 386.753906 675.339844 378.230469 668.195312 370.296875 660.339844 C 360.066406 649.625 344.476562 627.457031 338.871094 614.300781 C 333.269531 601.148438 325.71875 573.132812 315 568.261719 C 304.28125 563.390625 287.003906 565.992188 283.816406 565.824219 Z M 283.816406 565.824219 " fill-opacity="1" fill-rule="nonzero"/><path fill="#ffc2a1" d="M 354.546875 659.046875 C 353.898438 662.777344 350.160156 663.265625 352.4375 666.183594 C 352.71875 666.53125 352.878906 666.925781 352.925781 667.371094 C 353.238281 670.195312 348.546875 673.65625 348.546875 673.65625 C 348.992188 676.589844 348.71875 679.460938 347.734375 682.261719 C 346.113281 686.15625 339.625 688.589844 326.453125 697.847656 C 313.285156 707.109375 308.914062 711.972656 297.714844 699.796875 C 286.515625 687.617188 277.25 687.628906 259.507812 683.238281 C 241.765625 678.84375 227.554688 672.519531 218.789062 655.949219 C 210.023438 639.382812 210.015625 637.441406 193.9375 637.441406 C 177.859375 637.441406 156.878906 632.371094 148.136719 615.511719 C 139.394531 598.652344 147.652344 576.054688 165.199219 571.667969 C 173.015625 570.464844 180.867188 570.140625 188.757812 570.691406 C 201.117188 571.667969 208.070312 576.046875 230.480469 593.59375 C 233.625 596.035156 236.628906 598.640625 239.492188 601.40625 C 243.234375 604.976562 246.527344 608.921875 249.359375 613.25 C 253.570312 619.800781 254.597656 624.421875 257.109375 627.214844 C 259.476562 629.828125 265.191406 636.894531 271.5 643.882812 C 277.339844 650.371094 283.683594 656.789062 288.292969 659.527344 C 290.820312 661.03125 293.523438 662.089844 296.402344 662.707031 C 303.023438 664.167969 309.195312 663.054688 313.953125 662.941406 C 321.621094 662.4375 328.929688 660.546875 335.882812 657.265625 C 340.59375 654.671875 342.703125 649.953125 346.109375 649.136719 C 349.511719 648.324219 355.195312 655.308594 354.546875 659.046875 Z M 354.546875 659.046875 " fill-opacity="1" fill-rule="nonzero"/><path fill="#96a5a9" d="M 103.472656 608.535156 C 122.3125 625.101562 173.304688 632.246094 193.929688 637.445312 C 214.554688 642.640625 173.710938 649.625 142.53125 643.769531 C 111.347656 637.917969 100.144531 631.347656 99.65625 621.601562 C 99.171875 611.859375 103.472656 608.535156 103.472656 608.535156 Z M 103.472656 608.535156 " fill-opacity="1" fill-rule="nonzero"/><path fill="#96a5a9" d="M 277.085938 630.710938 C 276.515625 638.058594 274.460938 641.933594 271.492188 643.886719 C 265.183594 636.894531 259.464844 629.828125 257.097656 627.214844 C 253.269531 622.972656 252.902344 614.464844 239.480469 601.414062 C 239.503906 589.78125 239.425781 577.054688 239.234375 568.265625 C 239.234375 568.265625 238.8125 566.65625 238.421875 564.613281 C 237.742188 561.007812 237.160156 556.027344 239.214844 556.238281 C 241.882812 556.507812 266.535156 556.777344 274.574219 561.710938 C 276.273438 562.75 277.234375 564 277.085938 565.496094 C 276.785156 568.644531 276.910156 575.691406 277.097656 584.296875 C 277.429688 599.179688 278 618.710938 277.085938 630.710938 Z M 277.085938 630.710938 " fill-opacity="1" fill-rule="nonzero"/><path fill="#000000" d="M 269.527344 562.113281 L 269.171875 583.886719 C 260.410156 583.550781 254.710938 583.875 251.90625 584.578125 C 248.015625 585.558594 250.234375 593.84375 249.609375 604.5625 C 249.464844 607.074219 249.386719 610.101562 249.351562 613.25 C 246.515625 608.921875 243.226562 604.976562 239.480469 601.410156 C 239.503906 589.773438 239.425781 577.046875 239.234375 568.261719 C 239.234375 568.261719 238.8125 566.652344 238.425781 564.609375 Z M 269.527344 562.113281 " fill-opacity="0.2" fill-rule="nonzero"/><path fill="#e6e6e6" d="M 447.027344 543.660156 C 441.433594 548.527344 386.378906 549.265625 333.757812 552.582031 C 281.136719 555.894531 111.105469 553.640625 91.296875 552.582031 C 71.492188 551.519531 34.132812 546.820312 28.929688 541.304688 C 23.726562 535.789062 24.421875 526.878906 25.792969 519.8125 C 27.144531 516.453125 29.722656 514.21875 34.859375 511.984375 C 46.070312 507.121094 59.445312 504.503906 104.773438 505.421875 C 122.304688 505.765625 127.136719 505.5 159.832031 505.421875 C 192.523438 505.34375 241.1875 505.90625 340.089844 505.421875 C 408.695312 505.074219 438.378906 519.511719 450.140625 531.960938 C 450.140625 531.96875 450.144531 531.976562 450.152344 531.980469 C 450.484375 533.003906 450.667969 534.046875 450.695312 535.121094 C 450.726562 536.195312 450.601562 537.25 450.324219 538.285156 C 450.046875 539.324219 449.628906 540.296875 449.066406 541.210938 C 448.503906 542.128906 447.824219 542.941406 447.027344 543.660156 Z M 447.027344 543.660156 " fill-opacity="1" fill-rule="nonzero"/><path fill="#000000" d="M 40.257812 525.054688 C 50.613281 506.375 99.492188 513.699219 119.101562 511.722656 C 146.597656 511.527344 174.09375 511.441406 201.589844 511.46875 C 242.460938 511.613281 284.386719 511.769531 325.308594 512.6875 C 335.296875 512.847656 346.207031 512.847656 356.238281 512.847656 C 359.6875 513.050781 363.261719 512.476562 366.523438 513.984375 L 366.273438 514.355469 C 299.542969 514.789062 227.402344 516.738281 160.351562 515.714844 C 140.460938 515.519531 118.507812 515.257812 98.519531 514.941406 C 81.164062 516.140625 52.140625 509.605469 40.664062 525.222656 Z M 40.257812 525.054688 " fill-opacity="0.2" fill-rule="nonzero"/><path fill="#435465" d="M 117.347656 567.039062 L 68.945312 791.832031 L 51.820312 791.832031 L 100.96875 563.519531 Z M 117.347656 567.039062 " fill-opacity="1" fill-rule="nonzero"/><path fill="#96a5a9" d="M 457.023438 545.851562 C 457.023438 556.566406 454.589844 561.433594 435.09375 565.277344 C 415.601562 569.117188 357.140625 574.105469 311.828125 574.597656 C 266.515625 575.089844 173.707031 575.570312 147.15625 574.597656 C 120.605469 573.625 65.304688 571.679688 45.820312 565.277344 C 26.339844 558.871094 23.171875 554.867188 23.898438 538.300781 C 24.296875 529.324219 24.1875 523.777344 25.792969 519.8125 C 24.097656 533.164062 27.46875 535.84375 45.65625 540.199219 C 63.84375 544.550781 153.164062 548.125 204.8125 549.097656 C 256.460938 550.070312 376.832031 546.828125 398.816406 545.203125 C 410.886719 544.3125 435.617188 539.132812 450.140625 531.960938 C 455.332031 537.464844 457.023438 542.566406 457.023438 545.851562 Z M 457.023438 545.851562 " fill-opacity="1" fill-rule="nonzero"/><path fill="#96a5a9" d="M 308.667969 526.117188 C 299.410156 522.464844 292.714844 510.34375 290.394531 502.488281 C 288.074219 494.632812 290.394531 494.695312 311.347656 491.039062 C 320.746094 489.261719 330.230469 488.273438 339.796875 488.066406 C 349.363281 487.863281 358.878906 488.449219 368.347656 489.824219 C 387.835938 492.503906 392.464844 503.21875 381.015625 513.9375 C 369.566406 524.65625 362.503906 529.304688 358.847656 529.78125 C 358.847656 529.78125 362.503906 533.675781 348.617188 533.914062 C 334.730469 534.152344 319.992188 532.808594 313.539062 531.347656 C 307.082031 529.890625 308.667969 526.117188 308.667969 526.117188 Z M 308.667969 526.117188 " fill-opacity="1" fill-rule="nonzero"/><path fill="#fff7e8" d="M 298.074219 499.929688 C 294.164062 498.757812 295.324219 496.09375 299.660156 494.207031 C 303.992188 492.320312 302.578125 490.304688 305.382812 486.46875 C 308.1875 482.632812 315.492188 482.394531 316.832031 483.855469 C 316.832031 483.855469 320.722656 480.566406 324.625 481.90625 C 328.527344 483.25 328.519531 483.980469 328.519531 483.980469 C 329.753906 483.089844 331.105469 482.4375 332.570312 482.027344 C 334.035156 481.617188 335.527344 481.46875 337.046875 481.589844 C 342.039062 482.03125 343.132812 484.101562 343.132812 484.101562 C 344.125 483.300781 345.238281 482.742188 346.46875 482.421875 C 347.703125 482.101562 348.945312 482.054688 350.199219 482.273438 C 351.34375 482.390625 352.414062 482.734375 353.410156 483.308594 C 354.410156 483.882812 355.246094 484.632812 355.921875 485.5625 C 355.921875 485.5625 363.453125 485.742188 367.371094 488.027344 C 371.292969 490.3125 370.539062 490.738281 370.539062 490.738281 C 370.539062 490.738281 375.65625 490.3125 376.144531 494.941406 C 376.628906 499.570312 372.367188 501.640625 366.03125 502.128906 C 359.699219 502.613281 333.757812 503.710938 320.238281 502.859375 C 306.71875 502.007812 301.722656 501.027344 298.074219 499.929688 Z M 298.074219 499.929688 " fill-opacity="1" fill-rule="nonzero"/><path fill="#000000" d="M 358.445312 392.472656 C 350.527344 391.636719 346.863281 384.289062 342.3125 379.734375 C 341.535156 377.125 340.253906 374.789062 338.46875 372.734375 C 334.578125 368.839844 330.019531 372.246094 324.660156 374.191406 C 319.300781 376.140625 321.089844 368.839844 321.089844 368.839844 C 323.199219 365.835938 329.542969 358.769531 326.292969 357.550781 C 323.046875 356.335938 319.792969 353.488281 317.605469 356.335938 C 315.417969 359.183594 311.957031 362.824219 311.511719 363.480469 C 311.484375 363.523438 311.453125 363.5625 311.421875 363.601562 C 311.40625 363.632812 311.382812 363.652344 311.355469 363.667969 C 310.503906 364.621094 314.597656 354.726562 316.625 351.457031 C 318.730469 348.050781 321.179688 345.539062 317.757812 343.09375 C 316.707031 342.378906 315.570312 341.84375 314.351562 341.492188 C 313.128906 341.136719 311.882812 340.984375 310.613281 341.027344 C 309.804688 340.105469 308.859375 339.355469 307.777344 338.785156 C 310.300781 337.601562 312.589844 335.144531 316.859375 333.269531 C 323.1875 330.511719 336.675781 322.226562 339.757812 324.660156 C 342.839844 327.097656 347.867188 330.679688 354.867188 335.222656 C 361.863281 339.769531 362.011719 343.015625 362.976562 352.921875 C 363.65625 357.792969 363.65625 362.664062 362.976562 367.535156 C 361.847656 375.335938 368.347656 393.523438 358.445312 392.472656 Z M 358.445312 392.472656 " fill-opacity="0.2" fill-rule="nonzero"/><path fill="#ffc2a1" d="M 369.484375 360.070312 C 364.089844 354.167969 358.246094 348.753906 351.945312 343.832031 C 345.78125 338.804688 340.578125 337.984375 333.433594 334.898438 C 326.289062 331.816406 321.089844 330.84375 316.867188 329.222656 C 312.644531 327.601562 310.675781 336.0625 317.558594 341.726562 C 324.441406 347.390625 327.339844 347.332031 331.726562 349.359375 C 336.113281 351.390625 340.171875 354.226562 341.957031 359.269531 C 343.746094 364.308594 343.988281 374.695312 349.996094 384.601562 C 356.007812 394.507812 363.964844 396.945312 369.484375 397.105469 C 375.003906 397.269531 377.441406 380.214844 375.332031 373.070312 C 373.925781 368.496094 371.976562 364.160156 369.484375 360.070312 Z M 369.484375 360.070312 " fill-opacity="1" fill-rule="nonzero"/><path fill="#96a5a9" d="M 275.292969 353.082031 C 278.605469 351.660156 290.675781 340.820312 305.722656 337.207031 C 320.765625 333.59375 343.011719 327.300781 354.378906 323.222656 C 365.746094 319.140625 372.082031 318.207031 372.40625 323.222656 C 372.730469 328.238281 356.984375 329.371094 344.558594 332.78125 C 332.132812 336.191406 312.15625 340.78125 303.222656 342.464844 C 294.292969 344.152344 286.171875 348.371094 283.898438 351.296875 C 281.625 354.21875 278.070312 361.058594 270.339844 363.394531 C 262.605469 365.730469 256.9375 365.097656 254.097656 363.394531 C 251.257812 361.6875 253.609375 356.980469 259.214844 355.4375 C 264.816406 353.894531 272.445312 354.300781 275.292969 353.082031 Z M 275.292969 353.082031 " fill-opacity="1" fill-rule="nonzero"/><path fill="#fff7e8" d="M 276.347656 355.816406 C 278.78125 353.8125 279.609375 352.59375 278.546875 351.050781 C 277.484375 349.507812 271.882812 348.210938 264.085938 350.238281 C 256.292969 352.269531 251.921875 356.410156 252.894531 359.171875 C 253.867188 361.933594 257.140625 362.519531 265.246094 361.007812 C 273.347656 359.496094 276.347656 355.816406 276.347656 355.816406 Z M 276.347656 355.816406 " fill-opacity="1" fill-rule="nonzero"/><path fill="#754c24" d="M 398.820312 66.933594 C 379.019531 90.089844 374.238281 135.628906 398.820312 153.898438 C 423.402344 172.167969 423.402344 191.167969 405.132812 216.019531 C 386.863281 240.867188 389.054688 275.945312 421.941406 286.90625 C 421.941406 286.90625 405.863281 302.253906 418.285156 332.945312 C 430.710938 363.640625 470.902344 358.546875 507.441406 361.816406 C 543.980469 365.085938 625.101562 357.8125 674.796875 319.796875 C 724.492188 281.785156 723.027344 231.707031 690.144531 214.726562 C 657.257812 197.742188 636.792969 179.472656 630.941406 132.703125 C 625.089844 85.929688 611.941406 54.507812 586.363281 33.3125 C 560.785156 12.121094 542.765625 -0.0585938 500.378906 8.714844 C 457.992188 17.484375 443.378906 40.875 443.378906 40.875 C 443.378906 40.875 418.816406 43.546875 398.820312 66.933594 Z M 398.820312 66.933594 " fill-opacity="1" fill-rule="nonzero"/><path fill="#ffc2a1" d="M 664.730469 284.382812 C 664.730469 284.382812 641.34375 340.867188 639.722656 364.917969 C 638.105469 388.96875 635.167969 388.71875 609.835938 403.625 C 584.5 418.53125 542.597656 415.28125 511.75 407.488281 C 480.902344 399.695312 469.523438 405.542969 472.125 375.011719 C 474.726562 344.476562 476.992188 333.03125 483.492188 312.117188 C 489.992188 291.203125 493.238281 284.058594 493.238281 284.058594 C 493.238281 284.058594 507.851562 277.558594 520.839844 273.015625 C 533.824219 268.472656 535.453125 266.195312 534.804688 257.753906 C 533.984375 251.070312 532.328125 244.601562 529.835938 238.347656 C 527.726562 232.628906 525.054688 227.191406 521.820312 222.023438 C 514.675781 210.984375 516.941406 202.207031 516.941406 202.207031 L 533.511719 179.800781 C 544.226562 162.582031 562.742188 146.347656 564.035156 168.757812 C 564.214844 171.917969 564.554688 175.105469 565.0625 178.328125 C 566.765625 188.484375 569.585938 198.320312 573.527344 207.839844 C 577.464844 217.355469 582.425781 226.308594 588.402344 234.695312 C 602.046875 253.867188 616.984375 266.851562 637.125 273.027344 C 657.269531 279.199219 664.730469 284.382812 664.730469 284.382812 Z M 664.730469 284.382812 " fill-opacity="1" fill-rule="nonzero"/><path fill="#000000" d="M 565.0625 178.328125 C 564.347656 183.90625 563.144531 189.378906 561.445312 194.742188 C 556.289062 211.332031 543.089844 228.078125 529.835938 238.351562 C 527.726562 232.632812 525.054688 227.191406 521.820312 222.027344 C 514.675781 210.984375 516.941406 202.210938 516.941406 202.210938 L 533.511719 179.800781 C 544.226562 162.585938 562.742188 146.351562 564.035156 168.761719 C 564.214844 171.917969 564.554688 175.109375 565.0625 178.328125 Z M 565.0625 178.328125 " fill-opacity="0.2" fill-rule="nonzero"/><path fill="#ffc2a1" d="M 536.917969 205.621094 C 548.273438 191.757812 554.640625 177.179688 555.109375 167.621094 C 555.578125 158.066406 553.972656 153.328125 553.972656 153.328125 C 553.972656 153.328125 560.460938 157.382812 569.402344 147.488281 C 578.339844 137.597656 579.46875 124.429688 574.753906 115.011719 C 570.035156 105.59375 557.378906 105.101562 551.371094 111.101562 C 550.109375 112.46875 549.003906 113.949219 548.054688 115.550781 C 547.109375 117.152344 546.339844 118.832031 545.753906 120.597656 C 545.164062 122.363281 544.769531 124.167969 544.566406 126.019531 C 544.363281 127.867188 544.359375 129.714844 544.550781 131.566406 C 545.199219 137.082031 534.808594 135.78125 520.515625 133.1875 C 506.226562 130.59375 479.269531 112.238281 469.199219 96.652344 C 459.128906 81.066406 456.863281 71.320312 456.863281 71.320312 C 456.863281 71.320312 443.21875 74.5625 434.125 80.414062 C 425.03125 86.261719 420.808594 92.753906 420.160156 111.59375 C 419.507812 130.433594 429.902344 150.445312 432.179688 157.820312 C 434.453125 165.191406 434.195312 182.242188 443.742188 196.777344 C 453.289062 211.308594 464.988281 223.328125 478.949219 231.121094 C 492.90625 238.917969 517.917969 228.84375 536.917969 205.621094 Z M 536.917969 205.621094 " fill-opacity="1" fill-rule="nonzero"/><path fill="#000000" d="M 554.09375 122.351562 C 559.15625 114.480469 568.101562 117.722656 569.441406 123.324219 C 570.78125 128.925781 570.636719 134.042969 565.59375 130.390625 C 560.550781 126.738281 556.164062 131 559.453125 136.230469 C 562.742188 141.460938 562.007812 145.605469 556.53125 142.199219 C 551.054688 138.789062 548.613281 130.878906 554.09375 122.351562 Z M 554.09375 122.351562 " fill-opacity="0.2" fill-rule="nonzero"/><path fill="#feaaa0" d="M 479.917969 381.175781 C 485.03125 365.828125 491.367188 330.53125 493.800781 319.800781 C 496.238281 309.070312 503.121094 279.847656 503.121094 279.847656 C 503.121094 279.847656 503.546875 275.332031 488.6875 283.128906 C 484.988281 285.136719 481.503906 287.460938 478.230469 290.105469 C 474.957031 292.75 471.953125 295.671875 469.214844 298.867188 C 466.476562 302.0625 464.054688 305.476562 461.941406 309.117188 C 459.832031 312.757812 458.066406 316.558594 456.652344 320.519531 C 451.300781 335.867188 447.761719 386.695312 445.488281 405.535156 C 443.214844 424.378906 443.933594 432.496094 443.734375 442.238281 C 443.539062 451.984375 445.230469 559.167969 443.734375 592.621094 C 442.242188 626.074219 440.613281 654.332031 440.613281 662.453125 C 440.613281 670.574219 458.15625 661.804688 478.292969 657.585938 C 498.429688 653.371094 509.148438 665.058594 510.125 646.871094 C 511.097656 628.679688 514.015625 592.300781 516.285156 566.644531 C 518.558594 540.984375 504.921875 459.136719 490.628906 435.101562 C 476.335938 411.070312 479.917969 381.175781 479.917969 381.175781 Z M 479.917969 381.175781 " fill-opacity="1" fill-rule="nonzero"/><path fill="#000000" d="M 471.761719 462.050781 C 469.199219 499.074219 458.96875 602.363281 457.023438 624.773438 C 455.078125 647.183594 455.078125 673.003906 455.078125 673.003906 L 516.550781 665.777344 L 534 544.386719 L 487.226562 462.050781 Z M 471.761719 462.050781 " fill-opacity="0.3" fill-rule="nonzero"/><path fill="#fff7e8" d="M 489.984375 352.917969 C 493.429688 336.363281 500.867188 301.277344 502.328125 293.480469 C 503.316406 288.414062 504.644531 283.4375 506.304688 278.546875 C 506.304688 278.546875 503.503906 277.65625 499.992188 281.152344 C 499.992188 281.152344 497.214844 291.835938 495.261719 297.5625 C 493.3125 303.285156 486.898438 330.996094 483.652344 347.070312 C 480.40625 363.148438 479.199219 374.355469 471.761719 386.699219 C 464.328125 399.039062 454.417969 410.410156 452.796875 431.519531 C 451.171875 452.632812 462.863281 468.386719 473.421875 474.230469 C 483.976562 480.078125 486.898438 482.839844 488.6875 489.984375 C 490.472656 497.132812 494.777344 528.65625 499.402344 547.484375 C 504.03125 566.3125 506.226562 572.402344 512.316406 579.953125 C 518.402344 587.507812 532.535156 584.582031 560.792969 585.070312 C 589.050781 585.558594 605.613281 581.414062 613.652344 578.492188 C 621.691406 575.570312 619.257812 577.035156 618.03125 545.851562 C 616.808594 514.667969 614.140625 441.847656 617.300781 414.066406 C 620.460938 386.289062 627.046875 333.917969 635.082031 319.546875 C 643.121094 305.175781 650.066406 290.863281 653.71875 287.449219 C 657.371094 284.039062 660.042969 281.058594 660.042969 281.058594 C 657.667969 279.523438 655.070312 278.609375 652.257812 278.320312 C 652.257812 278.320312 650.117188 277.644531 640.253906 292.386719 C 630.621094 307.109375 623.292969 322.902344 618.273438 339.765625 C 612.917969 356.816406 609.175781 368.671875 605.765625 375.980469 C 602.355469 383.289062 582.058594 391.570312 571.011719 394.65625 C 559.96875 397.738281 535.691406 405.050781 514.011719 397.984375 C 492.332031 390.921875 488.796875 387.144531 486.484375 379.105469 C 484.167969 371.066406 487.285156 365.886719 489.984375 352.917969 Z M 489.984375 352.917969 " fill-opacity="1" fill-rule="nonzero"/><path fill="#000000" d="M 623.152344 459.453125 C 606.914062 482.191406 595.546875 485.089844 569.886719 488.023438 C 544.226562 490.957031 530.910156 485.105469 522.789062 473.738281 C 522.789062 473.738281 526.035156 495.183594 564.6875 498.429688 C 603.34375 501.675781 627.699219 483.164062 627.699219 483.164062 Z M 623.152344 459.453125 " fill-opacity="0.2" fill-rule="nonzero"/><path fill="#ffc2a1" d="M 439.316406 495.128906 C 417.675781 486.472656 403.589844 481.210938 384.75 481.539062 C 365.910156 481.867188 356.492188 486.929688 347.722656 492.351562 C 338.953125 497.777344 357.6875 497.542969 366.523438 495.128906 C 375.359375 492.714844 372.996094 494.628906 359.335938 498.8125 C 345.675781 502.996094 340.058594 506.558594 335.933594 512.808594 C 331.808594 519.054688 341.066406 518.351562 341.066406 518.351562 C 341.066406 518.351562 338.386719 523.382812 343.496094 525.234375 C 348.609375 527.089844 362.988281 522.222656 366.519531 521.488281 C 370.050781 520.757812 356.652344 524.410156 353.242188 528.3125 C 349.828125 532.214844 361.304688 533.425781 371.644531 531.230469 C 381.984375 529.035156 392.21875 526.136719 405.371094 529.78125 C 418.527344 533.425781 431.191406 535.429688 442.15625 533.941406 C 453.117188 532.449219 468.707031 538.539062 486.734375 546.089844 C 504.761719 553.640625 526.441406 562.65625 544.476562 569.230469 C 562.507812 575.808594 562.988281 577.273438 563.234375 567.527344 C 563.476562 557.78125 560.066406 521.730469 560.066406 521.730469 C 560.066406 521.730469 539.847656 520.816406 522.792969 518.351562 C 505.742188 515.882812 473.101562 507.015625 460.1875 503.167969 C 453.011719 501.058594 446.054688 498.378906 439.316406 495.128906 Z M 439.316406 495.128906 " fill-opacity="1" fill-rule="nonzero"/><path fill="#435465" d="M 627.699219 762.167969 C 620.675781 783.234375 583.773438 781.785156 542.085938 781.46875 C 524.019531 781.324219 505.050781 781.398438 487.21875 783.609375 C 435.402344 790.03125 402.042969 794.195312 339.152344 796.101562 C 330.488281 796.367188 321.265625 796.585938 311.347656 796.769531 C 229.5 798.230469 241.914062 775.332031 241.914062 775.332031 C 241.914062 775.332031 242.808594 741.714844 257.691406 718.660156 C 272.574219 695.605469 314.753906 685.6875 357.628906 675.460938 C 400.5 665.238281 474.804688 645.742188 489.417969 643.542969 C 504.03125 641.34375 505.25 638.917969 504.035156 625.769531 C 502.816406 612.617188 507.082031 599.09375 505.621094 587.269531 C 504.160156 575.449219 507.003906 571.785156 507.003906 571.785156 C 523.683594 573.347656 561.523438 574.230469 580.929688 574.519531 C 593.722656 574.710938 632.902344 570.433594 632.902344 570.433594 C 632.902344 570.433594 635.335938 583.863281 635.335938 617.972656 C 635.335938 652.082031 637.769531 731.957031 627.699219 762.167969 Z M 627.699219 762.167969 " fill-opacity="1" fill-rule="nonzero"/><path fill="#000000" d="M 627.699219 762.167969 C 620.675781 783.234375 583.773438 781.785156 542.085938 781.46875 C 549.285156 779.339844 556.335938 776.804688 563.242188 773.863281 C 597.351562 759.25 602.207031 753.398438 602.855469 724.660156 C 603.503906 695.921875 604.480469 639.726562 602.855469 625.761719 C 601.234375 611.792969 599.765625 608.054688 582.882812 605.941406 C 566 603.832031 566.515625 593.964844 565.050781 590.3125 C 563.589844 586.660156 556.292969 588.492188 546.910156 588.726562 C 537.523438 588.960938 535.332031 587.753906 535.453125 594.332031 C 535.578125 600.910156 535.453125 629.164062 535.941406 639.882812 C 536.425781 650.601562 539.832031 649.386719 559.808594 643.980469 C 579.789062 638.578125 588.070312 644.027344 588.070312 644.027344 C 580.03125 643.539062 564.355469 647.195312 536.105469 657.269531 C 507.859375 667.339844 465.300781 680 428.265625 692.011719 C 391.230469 704.027344 362.011719 714.097656 350.320312 730.988281 C 340.117188 745.730469 337.832031 767.144531 339.144531 796.09375 C 330.480469 796.359375 321.257812 796.578125 311.34375 796.761719 C 229.496094 798.222656 241.910156 775.324219 241.910156 775.324219 C 241.910156 775.324219 242.800781 741.707031 257.6875 718.652344 C 272.570312 695.597656 314.75 685.683594 357.625 675.457031 C 400.496094 665.230469 474.800781 645.734375 489.414062 643.535156 C 504.027344 641.335938 505.246094 638.914062 504.03125 625.761719 C 502.8125 612.609375 507.078125 599.085938 505.617188 587.265625 C 504.15625 575.441406 507 571.777344 507 571.777344 C 523.679688 573.339844 561.519531 574.222656 580.921875 574.511719 C 593.71875 574.703125 632.898438 570.425781 632.898438 570.425781 C 632.898438 570.425781 635.328125 583.859375 635.328125 617.96875 C 635.328125 652.078125 637.769531 731.957031 627.699219 762.167969 Z M 627.699219 762.167969 " fill-opacity="0.3" fill-rule="nonzero"/><path fill="#96a5a9" d="M 666.675781 401.316406 C 667.324219 372.089844 667.648438 369.484375 688.113281 372.082031 C 709.6875 374.78125 731.015625 378.789062 752.097656 384.097656 C 775.484375 389.9375 792.046875 405.535156 791.398438 435.742188 C 790.75 465.949219 781.007812 518.71875 765.414062 575.160156 C 749.824219 631.597656 745.925781 686.652344 744.953125 722.703125 C 743.976562 758.757812 742.375 777.757812 729.046875 788.964844 C 715.722656 800.167969 690.386719 809.914062 687.949219 781.65625 C 685.515625 753.398438 685.03125 661.746094 679.667969 570.425781 C 674.308594 479.101562 666.328125 417.101562 666.675781 401.316406 Z M 666.675781 401.316406 " fill-opacity="1" fill-rule="nonzero"/><path fill="#feaaa0" d="M 712.15625 790.425781 C 710.535156 805.6875 677.078125 804.070312 646.214844 806.011719 C 615.355469 807.957031 614.0625 798.867188 614.0625 763.140625 C 614.0625 735.136719 614.0625 657.929688 613.125 608.304688 C 612.945312 598.554688 612.722656 589.871094 612.464844 582.839844 C 612.351562 579.988281 612.242188 577.421875 612.117188 575.15625 C 610.171875 538.703125 605.621094 481.859375 604.648438 462.054688 C 604.035156 449.34375 604.523438 436.675781 606.109375 424.050781 C 609.960938 381.21875 624.128906 334.371094 634.367188 310.289062 C 644.605469 286.203125 655.492188 281.597656 658.015625 279.933594 C 660.539062 278.265625 664.691406 280.9375 670.652344 285.203125 C 673.980469 287.539062 677.097656 290.132812 679.992188 292.988281 C 682.890625 295.84375 685.53125 298.917969 687.917969 302.214844 C 690.300781 305.507812 692.394531 308.980469 694.203125 312.625 C 696.007812 316.269531 697.5 320.039062 698.679688 323.933594 C 705.488281 346.585938 707.6875 404.566406 706.226562 452.796875 C 704.761719 501.03125 704.160156 617.238281 706.660156 669.847656 C 709.160156 722.457031 713.769531 775.164062 712.15625 790.425781 Z M 712.15625 790.425781 " fill-opacity="1" fill-rule="nonzero"/><path fill="#000000" d="M 683.242188 561.195312 C 673.027344 595.492188 654.535156 610.375 613.117188 608.296875 C 612.9375 598.550781 612.714844 589.863281 612.457031 582.832031 C 624.226562 579.894531 640.804688 575.015625 646.957031 569.582031 C 656.925781 560.792969 678.363281 514.535156 683.890625 492.351562 C 689.421875 470.167969 693.964844 451.332031 693.964844 451.332031 C 698.183594 492.261719 693.964844 525.226562 683.242188 561.195312 Z M 683.242188 561.195312 " fill-opacity="0.3" fill-rule="nonzero"/><path fill="#feaaa0" d="M 697.53125 431.773438 C 699.15625 454.582031 697.53125 497.476562 687.136719 525.234375 C 676.742188 552.996094 666.675781 574.433594 646.539062 588.722656 C 626.402344 603.015625 599.636719 597.820312 579.953125 592.941406 C 560.273438 588.0625 552.835938 585.144531 553.160156 578.164062 C 553.484375 571.179688 553.625 561.273438 553.148438 552.015625 C 552.671875 542.761719 552.351562 530.503906 552.023438 525.871094 C 551.691406 521.238281 551.371094 519.050781 557.699219 517.910156 C 564.023438 516.773438 583.558594 514.542969 592.207031 514.300781 C 600.855469 514.054688 605.242188 512.960938 608.773438 513.082031 C 612.304688 513.203125 611.941406 508.9375 610.84375 503.945312 C 609.890625 500.261719 609.441406 496.515625 609.503906 492.707031 C 609.566406 488.902344 610.132812 485.171875 611.207031 481.519531 C 614.105469 470.582031 615.351562 445.480469 619.574219 424.371094 C 623.792969 403.257812 626.394531 394.8125 630.289062 379.546875 C 634.1875 364.28125 659.847656 344.46875 672.191406 350.964844 C 684.53125 357.460938 694.582031 381.496094 695.566406 391.242188 C 696.550781 400.984375 697.53125 431.773438 697.53125 431.773438 Z M 697.53125 431.773438 " fill-opacity="1" fill-rule="nonzero"/><path fill="#754c24" d="M 553.972656 153.328125 C 553 165.183594 548.960938 200.585938 547.890625 221.699219 C 546.824219 242.8125 558.191406 261.652344 580.277344 266.195312 C 580.277344 266.195312 613.410156 286.335938 635.171875 269.765625 C 656.933594 253.195312 610.488281 216.5 601.714844 204.480469 C 592.945312 192.460938 564.316406 157.816406 564.316406 157.816406 L 557.054688 155.601562 Z M 553.972656 153.328125 " fill-opacity="1" fill-rule="nonzero"/></svg>