<svg xmlns="http://www.w3.org/2000/svg" xmlns:xlink="http://www.w3.org/1999/xlink" width="1080" zoomAndPan="magnify" viewBox="0 0 810 809.999993" height="1080" preserveAspectRatio="xMidYMid meet" version="1.0"><rect x="-81" width="972" fill="#ffffff" y="-80.999999" height="971.999992" fill-opacity="1"/><rect x="-81" width="972" fill="#ffffff" y="-80.999999" height="971.999992" fill-opacity="1"/><path fill="#ffe7d7" d="M 586.597656 801.84375 C 586.597656 801.84375 668.101562 709.691406 697.652344 597.996094 C 726.414062 489.277344 674.480469 470.089844 660.101562 422.125 C 645.71875 374.160156 783.140625 269.4375 761.566406 148.726562 C 739.996094 28.015625 269.414062 -47.925781 170.34375 33.613281 C 84.777344 104.039062 173.539062 228.667969 128.800781 299.015625 C 104.214844 337.671875 26.535156 327.796875 31.328125 442.910156 C 36.558594 568.53125 191.117188 805.042969 191.117188 805.042969 Z M 586.597656 801.84375 " fill-opacity="1" fill-rule="nonzero"/><path fill="#f3c9b8" d="M 266.578125 472.695312 C 266.578125 472.695312 268.140625 463.304688 266.578125 460.957031 C 266.199219 460.386719 260.398438 460.140625 251.804688 460.09375 C 255.082031 455.171875 260.234375 416.882812 261.714844 399.519531 C 266.753906 399.398438 269.929688 399.128906 270.277344 398.664062 C 272.359375 395.890625 276.519531 374.382812 272.359375 372.996094 C 271.285156 372.636719 263.199219 372.371094 251.8125 372.171875 C 260.878906 364.671875 268.230469 356.796875 264.039062 353.570312 C 255.023438 346.632812 240.464844 365.363281 240.464844 365.363281 C 240.464844 365.363281 300.785156 273.789062 275.132812 262.6875 C 250.402344 251.988281 234.695312 313.476562 233.59375 317.925781 C 234.414062 314.539062 242.703125 279.371094 232.144531 280.03125 C 221.050781 280.726562 219.664062 326.515625 219.664062 326.515625 C 219.664062 326.515625 216.195312 201.636719 186.382812 212.738281 C 156.566406 223.839844 198.167969 348.019531 198.167969 348.019531 C 198.167969 348.019531 173.902344 293.214844 160.726562 310.558594 C 150.253906 324.347656 175.726562 358.320312 186.601562 371.65625 C 170.886719 371.609375 159.339844 371.609375 159.339844 371.609375 C 159.339844 371.609375 160.726562 394.5 162.808594 395.890625 C 163.09375 396.078125 165.242188 396.320312 168.730469 396.582031 C 168.75 396.738281 168.769531 396.894531 168.800781 397.054688 C 168.964844 398.25 169.152344 399.546875 169.351562 400.933594 C 172.257812 421.179688 178.089844 460.078125 180.140625 461.101562 C 180.324219 461.195312 180.773438 461.289062 181.449219 461.382812 C 174.15625 461.589844 169.300781 461.738281 168.789062 461.738281 C 168.789062 461.738281 169.570312 471.914062 170.355469 472.699219 C 170.582031 472.925781 178.753906 473.019531 190.242188 473.039062 C 185.949219 498.609375 152.65625 801.609375 154.855469 802.339844 C 157.203125 803.125 158.765625 802.339844 158.765625 802.339844 L 171.269531 698.804688 C 176.972656 699.277344 188.097656 698.90625 193.757812 698.910156 C 200.710938 698.917969 207.660156 698.914062 214.613281 698.917969 C 215.773438 698.917969 216.9375 698.917969 218.101562 698.917969 C 219.867188 752.023438 221.820312 801.976562 222.914062 802.339844 C 225.261719 803.125 226.828125 802.339844 226.828125 802.339844 L 224.347656 698.921875 C 228.054688 698.921875 231.757812 698.921875 235.464844 698.925781 C 242.265625 698.925781 254.269531 699.308594 261 698.308594 L 273.660156 802.339844 C 273.660156 802.339844 275.226562 803.125 277.574219 802.339844 C 279.773438 801.605469 246.039062 497.730469 241.867188 472.871094 C 256 472.78125 266.578125 472.695312 266.578125 472.695312 Z M 214.609375 694.261719 C 207.660156 694.261719 200.707031 694.257812 193.757812 694.265625 C 188.347656 694.273438 177.5 693.933594 172.035156 694.316406 L 197.273438 473.042969 C 202.609375 473.042969 208.378906 473.027344 214.234375 473.007812 C 214.578125 485.375 216.230469 642.382812 217.941406 694.257812 C 216.832031 694.257812 215.722656 694.261719 214.609375 694.261719 Z M 260.398438 694.792969 C 253.859375 693.902344 242.0625 694.25 235.460938 694.253906 C 231.71875 694.253906 227.976562 694.257812 224.234375 694.257812 L 221.265625 472.980469 C 225.882812 472.960938 230.460938 472.9375 234.835938 472.910156 Z M 260.398438 694.792969 " fill-opacity="1" fill-rule="nonzero"/><path fill="#f3c9b8" d="M 146.542969 34.515625 C 146.542969 34.515625 145.109375 163.132812 149.367188 166.328125 C 156.894531 171.980469 485.929688 169.625 490.007812 163.503906 C 491.890625 160.679688 492.832031 34.515625 486.246094 31.691406 C 477.425781 27.90625 168.1875 27.921875 146.542969 34.515625 Z M 146.542969 34.515625 " fill-opacity="1" fill-rule="nonzero"/><path fill="#ffe7d7" d="M 319.246094 169.351562 C 319.207031 152.375 319.011719 135.378906 319 118.414062 C 318.984375 90.261719 318.964844 62.109375 318.824219 33.957031 C 318.8125 31.839844 315.539062 31.828125 315.527344 33.957031 C 315.398438 62.109375 315.367188 90.261719 315.359375 118.414062 C 315.351562 135.378906 315.152344 152.386719 315.113281 169.371094 Z M 319.246094 169.351562 " fill-opacity="1" fill-rule="nonzero"/><path fill="#ffe7d7" d="M 237.03125 152.824219 C 226.089844 152.636719 215.148438 152.691406 204.207031 152.933594 C 200.835938 153.003906 200.820312 158.238281 204.207031 158.183594 C 215.148438 158.007812 226.089844 158.023438 237.03125 158.164062 C 240.46875 158.210938 240.46875 152.886719 237.03125 152.824219 Z M 237.03125 152.824219 " fill-opacity="1" fill-rule="nonzero"/><path fill="#ffe7d7" d="M 428.867188 151.5 C 417.792969 152.359375 406.730469 153.003906 395.621094 152.492188 C 392.269531 152.339844 392.285156 157.523438 395.621094 157.703125 C 406.976562 158.308594 418.269531 158.019531 429.476562 155.988281 C 431.988281 155.53125 431.433594 151.300781 428.867188 151.5 Z M 428.867188 151.5 " fill-opacity="1" fill-rule="nonzero"/><path fill="#766782" d="M 589.882812 801.605469 C 590.960938 809.296875 492.835938 810.039062 386.625 810.039062 C 203.082031 810.039062 184.042969 808.914062 184.042969 805.316406 C 184.042969 801.71875 207.292969 799.949219 386.457031 799.949219 C 492.667969 799.949219 589.289062 797.394531 589.882812 801.605469 Z M 589.882812 801.605469 " fill-opacity="1" fill-rule="nonzero"/><path fill="#1a1a22" d="M 240.355469 805.273438 C 234.363281 805.273438 228.917969 805.238281 224.265625 805.164062 C 206.042969 804.871094 205.398438 804.226562 204.324219 803.152344 C 203.175781 802.003906 202.90625 801.734375 203.277344 785.714844 C 203.480469 776.847656 203.917969 763.945312 204.566406 747.367188 C 205.664062 719.464844 207.386719 680.761719 209.6875 632.324219 C 213.601562 549.863281 217.898438 466.65625 217.941406 465.828125 C 218.027344 464.097656 219.515625 462.769531 221.226562 462.863281 C 222.953125 462.953125 224.277344 464.425781 224.191406 466.152344 C 217.75 590.828125 208.773438 776.898438 209.402344 798.339844 C 216.375 799.011719 242.039062 799.300781 277.140625 798.640625 C 316.925781 797.890625 339.5625 796.492188 345.53125 795.378906 C 345.335938 775.035156 326.65625 589.632812 313.691406 465.652344 C 313.511719 463.933594 314.761719 462.394531 316.480469 462.214844 C 318.191406 462.035156 319.738281 463.28125 319.917969 465.003906 C 320.003906 465.824219 328.597656 548.039062 336.757812 629.683594 C 341.546875 677.640625 345.257812 716.023438 347.777344 743.757812 C 352.621094 797.089844 352.015625 798 351.101562 799.375 C 350.097656 800.882812 348.492188 801.507812 340.980469 802.25 C 324.816406 803.851562 289.109375 804.796875 263.449219 805.121094 C 255.261719 805.222656 247.425781 805.273438 240.355469 805.273438 Z M 209.519531 800.089844 Z M 345.480469 796.894531 Z M 345.480469 796.894531 " fill-opacity="1" fill-rule="nonzero"/><path fill="#bb5122" d="M 512.34375 742.582031 C 512.34375 742.582031 517.757812 765.605469 517.320312 772.191406 C 516.878906 778.773438 509.855469 787.699219 506.785156 790.332031 C 503.714844 792.964844 502.984375 799.648438 507.304688 799.488281 C 511.964844 799.316406 535.449219 800.351562 553.585938 798.8125 C 560.039062 798.265625 546.835938 766.773438 544.203125 740.4375 C 541.574219 714.101562 512.34375 742.582031 512.34375 742.582031 Z M 512.34375 742.582031 " fill-opacity="1" fill-rule="nonzero"/><path fill="#61b7b0" d="M 543.988281 779.84375 C 541.855469 777.980469 536.265625 767.320312 528.542969 767.320312 C 523.394531 767.320312 519.316406 770.988281 517.164062 773.433594 C 516.027344 779.851562 509.667969 787.859375 506.785156 790.332031 C 503.714844 792.964844 502.988281 799.648438 507.304688 799.488281 C 511.964844 799.316406 535.449219 800.351562 553.585938 798.8125 C 557.34375 798.492188 554.441406 787.6875 550.835938 773.519531 C 548.195312 777.175781 545.117188 780.835938 543.988281 779.84375 Z M 543.988281 779.84375 " fill-opacity="1" fill-rule="nonzero"/><path fill="#ffffff" d="M 504.296875 795.660156 C 504.171875 797.773438 505.039062 799.574219 507.304688 799.488281 C 511.964844 799.316406 535.449219 800.351562 553.585938 798.8125 C 554.996094 798.695312 555.46875 797.097656 555.316406 794.398438 C 552.503906 795.1875 541.695312 795.898438 530.59375 796.117188 C 517.871094 796.367188 506.828125 795.882812 504.296875 795.660156 Z M 504.296875 795.660156 " fill-opacity="1" fill-rule="nonzero"/><path fill="#bb5122" d="M 402.195312 743.75 C 402.195312 743.75 412.730469 762.933594 412.292969 769.519531 C 411.851562 776.101562 391.410156 784.667969 373.433594 793.214844 C 369.78125 794.949219 369.566406 796.921875 371.320312 800.871094 C 373.078125 804.820312 447.519531 802.171875 449.761719 800.097656 C 454.523438 795.703125 442.511719 765.644531 439.878906 739.308594 C 437.246094 712.976562 402.195312 743.75 402.195312 743.75 Z M 402.195312 743.75 " fill-opacity="1" fill-rule="nonzero"/><path fill="#61b7b0" d="M 449.761719 800.097656 C 452.3125 797.746094 450.046875 788.015625 446.988281 775.445312 C 440.621094 779.394531 430.597656 785.097656 427.929688 783.671875 C 423.9375 781.542969 427.851562 773.425781 419.941406 771.683594 C 416.5 770.921875 413.914062 770.6875 411.972656 770.785156 C 409.285156 777.179688 390.277344 785.207031 373.429688 793.214844 C 369.777344 794.949219 369.566406 796.921875 371.320312 800.871094 C 373.078125 804.820312 447.515625 802.171875 449.761719 800.097656 Z M 449.761719 800.097656 " fill-opacity="1" fill-rule="nonzero"/><path fill="#ffffff" d="M 449.761719 800.097656 C 450.851562 799.09375 451.054688 796.734375 450.703125 793.394531 C 446.699219 793.957031 437.886719 795.214844 434.660156 795.800781 C 430.429688 796.570312 427.324219 798.59375 422.324219 798.980469 C 417.996094 799.3125 379.847656 800.125 370.5625 798.878906 C 370.742188 799.484375 371 800.144531 371.320312 800.871094 C 373.078125 804.820312 447.515625 802.171875 449.761719 800.097656 Z M 449.761719 800.097656 " fill-opacity="1" fill-rule="nonzero"/><path fill="#61b7b0" d="M 513.09375 411.527344 C 513.09375 411.527344 529.871094 502.660156 537.0625 555.421875 C 544.253906 608.183594 561.832031 753.675781 561.832031 753.675781 C 561.832031 753.675781 497.914062 765.667969 493.917969 756.875 C 489.925781 748.078125 457.167969 504.261719 457.167969 504.261719 C 457.167969 504.261719 445.984375 569.214844 445.984375 587.601562 C 445.984375 602.078125 457.964844 754.476562 457.964844 758.472656 C 457.964844 762.46875 391.652344 763.269531 390.054688 759.269531 C 388.457031 755.273438 376.300781 583.675781 375.675781 568.414062 C 373.277344 510.058594 390.855469 410.730469 390.855469 410.730469 Z M 513.09375 411.527344 " fill-opacity="1" fill-rule="nonzero"/><path fill="#338c81" d="M 515.144531 439.238281 C 511.109375 436.292969 507.730469 432.519531 505.1875 428.226562 C 507.769531 427.640625 510.347656 427.027344 512.910156 426.378906 C 513.828125 426.144531 514.746094 425.902344 515.660156 425.660156 C 514.074219 416.851562 513.09375 411.527344 513.09375 411.527344 L 390.855469 410.730469 C 390.855469 410.730469 389.84375 419.613281 388.421875 433.699219 C 395.550781 434.738281 402.746094 435.378906 409.933594 435.78125 C 421.320312 436.417969 432.769531 436.550781 444.167969 436.136719 C 455.707031 435.714844 467.226562 434.695312 478.660156 433.082031 C 487.019531 431.902344 495.332031 430.40625 503.578125 428.585938 C 506.285156 433.304688 509.964844 437.386719 514.355469 440.589844 C 515.167969 441.1875 515.949219 439.828125 515.144531 439.238281 Z M 515.144531 439.238281 " fill-opacity="1" fill-rule="nonzero"/><path fill="#338c81" d="M 451.351562 491.507812 C 445.816406 511.089844 441.011719 530.878906 436.964844 550.820312 C 435.824219 556.429688 434.746094 562.050781 433.726562 567.683594 C 433.546875 568.667969 435.054688 569.089844 435.234375 568.097656 C 438.863281 548.074219 443.238281 528.1875 448.359375 508.496094 C 449.800781 502.953125 451.300781 497.433594 452.859375 491.925781 C 453.132812 490.953125 451.625 490.539062 451.351562 491.507812 Z M 451.351562 491.507812 " fill-opacity="1" fill-rule="nonzero"/><path fill="#338c81" d="M 439.769531 682.601562 C 439.042969 670.625 438.3125 658.648438 437.585938 646.675781 C 436.855469 634.6875 436.296875 622.675781 435.105469 610.722656 C 434.78125 607.460938 434.398438 604.203125 433.945312 600.957031 C 433.714844 599.304688 433.464844 597.65625 433.191406 596.011719 C 432.917969 594.378906 432.484375 592.707031 432.597656 591.042969 C 432.777344 588.378906 435.253906 586.28125 434.875 583.53125 C 434.617188 581.632812 433.054688 579.683594 430.964844 580.28125 C 429.996094 580.558594 430.40625 582.070312 431.378906 581.789062 C 432.324219 581.519531 432.957031 582.421875 433.21875 583.222656 C 433.605469 584.425781 433.050781 585.589844 432.523438 586.65625 C 432.027344 587.65625 431.472656 588.652344 431.214844 589.75 C 430.929688 590.972656 431.007812 592.214844 431.183594 593.449219 C 431.59375 596.351562 432.148438 599.230469 432.542969 602.136719 C 432.929688 604.992188 433.253906 607.855469 433.542969 610.722656 C 434.695312 622.285156 435.242188 633.90625 435.949219 645.5 C 437.375 668.933594 438.800781 692.367188 440.222656 715.796875 C 441.023438 728.945312 441.824219 742.09375 442.621094 755.242188 C 442.683594 756.242188 444.25 756.25 444.1875 755.242188 C 442.714844 731.027344 441.242188 706.816406 439.769531 682.601562 Z M 439.769531 682.601562 " fill-opacity="1" fill-rule="nonzero"/><path fill="#ffe7d7" d="M 454.925781 485.0625 C 454.824219 484.222656 454.277344 483.496094 453.359375 483.496094 C 452.59375 483.496094 451.695312 484.214844 451.796875 485.0625 C 453.3125 497.710938 454.832031 510.355469 456.347656 523.003906 C 456.449219 523.84375 456.996094 524.570312 457.914062 524.570312 C 458.679688 524.570312 459.578125 523.851562 459.476562 523.003906 C 457.960938 510.355469 456.441406 497.710938 454.925781 485.0625 Z M 454.925781 485.0625 " fill-opacity="1" fill-rule="nonzero"/><path fill="#bb5122" d="M 322.867188 294.726562 C 322.867188 294.726562 325.542969 348.199219 325.542969 352.480469 C 325.542969 356.757812 258.734375 421.996094 257.132812 422.53125 C 255.527344 423.066406 246.976562 436.4375 248.578125 443.921875 C 250.183594 451.410156 284.921875 448.203125 289.199219 446.597656 C 293.472656 444.992188 300.421875 420.394531 300.421875 420.394531 C 300.957031 418.789062 358.675781 376.542969 364.554688 369.058594 C 370.433594 361.570312 364.023438 305.953125 364.023438 305.953125 Z M 322.867188 294.726562 " fill-opacity="1" fill-rule="nonzero"/><path fill="#a54322" d="M 278.933594 430.851562 C 278.902344 430.851562 278.871094 430.851562 278.84375 430.851562 C 278.828125 430.855469 278.859375 430.859375 278.960938 430.855469 C 278.949219 430.855469 278.941406 430.855469 278.933594 430.851562 Z M 278.933594 430.851562 " fill-opacity="1" fill-rule="nonzero"/><path fill="#a54322" d="M 281.664062 430.046875 C 280.59375 428.414062 278.402344 428.097656 276.734375 428.980469 C 275.667969 429.546875 274.984375 430.554688 274.59375 431.675781 C 273.785156 430.773438 272.875 429.851562 271.789062 429.550781 C 269.394531 428.886719 268.160156 431.414062 267.667969 433.730469 C 267.195312 433.214844 266.738281 432.683594 266.199219 432.238281 C 265.070312 431.300781 263.738281 430.8125 262.269531 431.015625 C 260.664062 431.238281 259.398438 432.238281 258.722656 433.558594 C 258.238281 432.527344 257.710938 431.523438 256.59375 430.941406 C 254.777344 429.992188 252.433594 431.054688 252.285156 433.160156 C 252.175781 434.667969 254.523438 434.660156 254.628906 433.160156 C 254.65625 432.804688 255.375 432.953125 255.539062 433.035156 C 256.09375 433.308594 256.421875 434.003906 256.675781 434.523438 C 257.273438 435.734375 257.707031 436.980469 258.773438 437.871094 C 259.582031 438.546875 261.171875 437.9375 260.734375 436.730469 C 260.058594 434.859375 261.554688 432.761719 263.636719 433.410156 C 264.496094 433.675781 265.132812 434.421875 265.71875 435.0625 C 266.421875 435.828125 267.113281 436.558594 267.980469 437.144531 C 268.726562 437.648438 269.757812 436.980469 269.746094 436.132812 C 269.730469 435.003906 269.914062 433.894531 270.394531 432.863281 C 270.550781 432.53125 270.808594 431.84375 271.1875 431.835938 C 271.585938 431.832031 272.199219 432.636719 272.441406 432.882812 C 274.128906 434.621094 275.757812 436.417969 277.335938 438.257812 C 278.320312 439.40625 279.972656 437.738281 278.996094 436.597656 C 278.191406 435.65625 277.363281 434.730469 276.53125 433.816406 C 276.53125 433.816406 276.53125 433.8125 276.53125 433.8125 C 276.539062 433.71875 276.542969 433.625 276.550781 433.535156 C 276.554688 433.496094 276.558594 433.453125 276.5625 433.414062 C 276.578125 433.285156 276.574219 433.308594 276.550781 433.488281 C 276.507812 433.398438 276.613281 433.121094 276.636719 433.015625 C 276.671875 432.847656 276.71875 432.679688 276.773438 432.515625 C 276.800781 432.425781 276.835938 432.339844 276.863281 432.253906 C 276.867188 432.25 276.867188 432.25 276.867188 432.25 C 276.867188 432.246094 276.867188 432.246094 276.871094 432.242188 C 276.9375 432.101562 277.007812 431.960938 277.089844 431.824219 C 277.136719 431.746094 277.1875 431.671875 277.238281 431.597656 C 277.25 431.582031 277.253906 431.578125 277.257812 431.566406 C 277.261719 431.5625 277.265625 431.5625 277.269531 431.554688 C 277.378906 431.441406 277.480469 431.328125 277.597656 431.222656 C 277.605469 431.214844 277.613281 431.207031 277.625 431.199219 C 277.667969 431.175781 277.777344 431.089844 277.800781 431.078125 C 277.859375 431.042969 277.921875 431.011719 277.980469 430.980469 C 277.984375 430.976562 277.984375 430.976562 277.988281 430.972656 C 278.117188 430.933594 278.242188 430.890625 278.371094 430.863281 C 278.390625 430.859375 278.410156 430.855469 278.429688 430.851562 C 278.476562 430.847656 278.523438 430.84375 278.566406 430.839844 C 278.65625 430.839844 278.75 430.847656 278.839844 430.851562 C 278.851562 430.847656 278.882812 430.847656 278.929688 430.855469 C 278.953125 430.855469 278.980469 430.859375 279.003906 430.855469 C 278.984375 430.859375 278.976562 430.859375 278.957031 430.859375 C 279.023438 430.871094 279.085938 430.886719 279.148438 430.90625 C 279.167969 430.914062 279.226562 430.933594 279.273438 430.953125 C 279.308594 430.96875 279.339844 430.984375 279.351562 430.992188 C 279.398438 431.015625 279.441406 431.046875 279.488281 431.074219 C 279.527344 431.121094 279.574219 431.164062 279.617188 431.207031 C 279.625 431.214844 279.632812 431.226562 279.636719 431.234375 C 279.972656 431.746094 280.691406 432.011719 281.242188 431.65625 C 281.757812 431.324219 282.027344 430.597656 281.664062 430.046875 Z M 281.664062 430.046875 " fill-opacity="1" fill-rule="nonzero"/><path fill="#61b7b0" d="M 518.289062 413.132812 C 515.890625 402.339844 489.527344 303.414062 489.527344 303.414062 C 489.527344 303.414062 503.308594 303.414062 503.308594 295.019531 C 503.308594 286.625 504.507812 230.265625 491.324219 220.074219 C 478.140625 209.882812 431.089844 198.738281 431.089844 198.738281 L 391.691406 204.410156 C 391.691406 204.410156 348.910156 218.074219 342.242188 225.589844 C 342.179688 225.625 342.113281 225.644531 342.054688 225.691406 C 332.035156 233.40625 315.597656 303.710938 319.332031 307.269531 C 328.449219 315.957031 346.792969 319.351562 356.210938 320.566406 C 365.425781 370.4375 375.628906 421.929688 376.25 424.113281 C 377.449219 428.3125 387.0625 439.511719 423.011719 435.914062 C 458.964844 432.316406 520.683594 423.925781 518.289062 413.132812 Z M 518.289062 413.132812 " fill-opacity="1" fill-rule="nonzero"/><path fill="#338c81" d="M 356.988281 319.03125 C 355.113281 303.621094 353.53125 288.179688 352.238281 272.710938 C 352.113281 271.21875 349.761719 271.203125 349.890625 272.710938 C 351.183594 288.179688 352.769531 303.621094 354.640625 319.03125 C 354.820312 320.511719 357.167969 320.53125 356.988281 319.03125 Z M 356.988281 319.03125 " fill-opacity="1" fill-rule="nonzero"/><path fill="#1a1a1a" d="M 491.765625 291.425781 C 491.765625 291.902344 497.464844 283.492188 497.464844 283.492188 C 497.464844 283.492188 502.925781 294.515625 500.316406 298.792969 C 497.703125 303.070312 489.863281 300.21875 489.863281 300.21875 Z M 491.765625 291.425781 " fill-opacity="1" fill-rule="nonzero"/><path fill="#338c81" d="M 463.675781 239.332031 C 460.886719 249.40625 457.449219 259.296875 453.347656 268.914062 C 452.761719 270.289062 454.78125 271.488281 455.375 270.101562 C 459.554688 260.292969 463.097656 250.230469 465.9375 239.953125 C 466.34375 238.496094 464.078125 237.875 463.675781 239.332031 Z M 463.675781 239.332031 " fill-opacity="1" fill-rule="nonzero"/><path fill="#338c81" d="M 459.8125 238.019531 C 468.242188 229.054688 479.578125 223.847656 491.03125 219.855469 C 490.535156 219.488281 490 219.117188 489.425781 218.746094 C 481.507812 221.550781 473.800781 224.921875 466.945312 229.78125 C 463.976562 231.886719 461.203125 234.257812 458.707031 236.910156 C 458.019531 237.644531 459.121094 238.753906 459.8125 238.019531 Z M 459.8125 238.019531 " fill-opacity="1" fill-rule="nonzero"/><path fill="#338c81" d="M 341.460938 227.476562 C 341.398438 227.121094 341.34375 226.761719 341.28125 226.40625 C 340.863281 226.84375 340.4375 227.375 340 227.996094 C 341.839844 238.273438 344.558594 248.386719 348.1875 258.183594 C 349.632812 262.085938 351.21875 265.933594 352.933594 269.726562 C 353.347656 270.644531 354.695312 269.851562 354.285156 268.9375 C 348.316406 255.71875 344.003906 241.757812 341.460938 227.476562 Z M 341.460938 227.476562 " fill-opacity="1" fill-rule="nonzero"/><path fill="#338c81" d="M 416.625 238.566406 C 415.285156 240.316406 413.941406 242.070312 412.597656 243.820312 C 411.398438 245.382812 410.230469 247.148438 408.003906 246.398438 C 406.222656 245.796875 404.828125 244.25 403.714844 242.796875 C 402.617188 241.367188 401.722656 239.789062 400.921875 238.175781 C 399.121094 234.554688 397.617188 230.777344 396.003906 227.070312 C 394.273438 223.085938 392.542969 219.105469 390.8125 215.125 C 389.492188 212.085938 388.167969 209.042969 386.847656 206.003906 C 386.382812 206.160156 385.890625 206.328125 385.371094 206.503906 C 388.566406 213.859375 391.765625 221.214844 394.964844 228.574219 C 396.683594 232.53125 398.242188 236.625 400.324219 240.410156 C 401.980469 243.417969 404.542969 247.320312 408.167969 248.0625 C 410.285156 248.492188 411.800781 247.386719 413.046875 245.785156 C 414.703125 243.652344 416.335938 241.5 417.980469 239.355469 C 418.589844 238.558594 417.230469 237.777344 416.625 238.566406 Z M 416.625 238.566406 " fill-opacity="1" fill-rule="nonzero"/><path fill="#338c81" d="M 435.296875 199.777344 C 430.746094 211.703125 425.625 223.40625 419.9375 234.835938 C 419.488281 235.734375 420.839844 236.527344 421.289062 235.625 C 427.042969 224.070312 432.21875 212.230469 436.816406 200.164062 C 436.277344 200.027344 435.769531 199.898438 435.296875 199.777344 Z M 435.296875 199.777344 " fill-opacity="1" fill-rule="nonzero"/><path fill="#bb5122" d="M 412.664062 166.972656 C 412.664062 166.972656 416.632812 179.734375 420.035156 186.828125 C 423.433594 193.917969 431.089844 198.738281 431.089844 198.738281 C 431.089844 198.738281 413.796875 239.578125 409.261719 239.578125 C 404.726562 239.578125 391.691406 204.410156 391.691406 204.410156 C 391.691406 204.410156 397.640625 199.019531 393.671875 189.378906 C 389.703125 179.738281 412.664062 166.972656 412.664062 166.972656 Z M 412.664062 166.972656 " fill-opacity="1" fill-rule="nonzero"/><path fill="#1a1a1a" d="M 394.5 199.539062 C 397.046875 199.515625 399.550781 198.902344 401.714844 197.480469 C 404.253906 195.816406 406.066406 193.253906 407.25 190.492188 C 408.558594 187.449219 409.164062 184.113281 409.296875 180.816406 C 409.425781 177.453125 409.066406 174.058594 408.171875 170.8125 C 408.089844 170.515625 408 170.222656 407.910156 169.929688 C 401.417969 174.269531 390.882812 182.59375 393.675781 189.378906 C 395.417969 193.625 395.242188 197.039062 394.5 199.539062 Z M 394.5 199.539062 " fill-opacity="1" fill-rule="nonzero"/><path fill="#1a1a1a" d="M 422.339844 134.027344 C 424.449219 130.960938 423.535156 127.648438 421.386719 124.863281 C 420.226562 123.359375 418.667969 122.207031 417.542969 120.683594 C 416.515625 119.289062 416.34375 117.472656 414.933594 116.351562 C 413.652344 115.332031 411.964844 115.003906 410.382812 114.808594 C 408.414062 114.570312 406.421875 114.65625 404.476562 115.035156 C 403.460938 115.234375 402.644531 115.464844 401.925781 114.554688 C 401.421875 113.910156 400.996094 113.242188 400.386719 112.6875 C 399.234375 111.640625 397.777344 110.894531 396.246094 110.609375 C 394.523438 110.285156 392.90625 110.589844 391.25 111.09375 C 390.351562 111.367188 389.449219 111.6875 388.511719 111.792969 C 387.402344 111.917969 386.363281 111.640625 385.328125 111.25 C 382.183594 110.066406 378.851562 108.976562 375.558594 110.367188 C 374.042969 111.003906 373.085938 112.105469 372.074219 113.351562 C 371.566406 113.972656 371.039062 114.566406 370.28125 114.875 C 369.417969 115.230469 368.457031 115.316406 367.570312 115.617188 C 364.839844 116.539062 361.976562 118.503906 361.46875 121.546875 C 361.320312 122.445312 361.570312 123.492188 360.796875 124.132812 C 360.179688 124.640625 359.371094 124.875 358.75 125.390625 C 357.589844 126.359375 356.90625 127.789062 356.5625 129.238281 C 356.140625 131.03125 356.261719 132.875 356.273438 134.699219 C 356.289062 136.683594 355.839844 138.421875 355.429688 140.335938 C 355.125 141.757812 354.992188 143.332031 355.890625 144.578125 C 356.363281 145.234375 357.097656 145.542969 357.632812 146.128906 C 358.191406 146.742188 358.335938 147.589844 358.449219 148.386719 C 358.65625 149.8125 358.746094 151.371094 359.792969 152.476562 C 360.769531 153.507812 362.359375 153.90625 363.714844 153.472656 C 364.03125 153.371094 364.300781 153.144531 364.605469 153.039062 C 365.148438 152.855469 365.21875 153.058594 365.414062 153.5625 C 365.679688 154.238281 365.859375 154.910156 366.269531 155.523438 C 367.097656 156.761719 368.378906 157.675781 369.8125 158.078125 C 371.359375 158.511719 372.804688 158.214844 374.253906 157.59375 C 375.0625 157.246094 375.867188 156.800781 376.746094 156.652344 C 377.789062 156.472656 378.589844 156.9375 379.414062 157.515625 C 380.90625 158.566406 382.429688 159.421875 384.234375 159.8125 C 386.199219 160.242188 388.117188 160.035156 390.089844 159.78125 C 392.097656 159.523438 394.09375 159.34375 395.96875 160.269531 C 397.472656 161.011719 398.824219 162.113281 400.496094 162.480469 C 402.066406 162.820312 403.664062 162.496094 405.082031 161.777344 C 406.632812 160.992188 407.644531 159.785156 408.78125 158.523438 C 409.503906 157.71875 409.941406 158.347656 410.554688 158.914062 C 411.109375 159.421875 411.683594 159.816406 412.441406 159.929688 C 413.828125 160.140625 415.242188 159.414062 416.085938 158.332031 C 416.851562 157.351562 417.175781 156.160156 417.375 154.949219 C 417.535156 154.96875 417.695312 154.96875 417.863281 154.941406 C 418.785156 154.796875 419.3125 154.0625 419.46875 153.179688 C 419.644531 152.183594 419.414062 151.042969 419.214844 150.023438 C 420.828125 148.449219 421.847656 146.320312 422.078125 144.042969 C 422.253906 142.285156 421.785156 140.753906 421.238281 139.105469 C 420.941406 138.207031 420.671875 137.265625 420.964844 136.328125 C 421.234375 135.46875 421.839844 134.753906 422.339844 134.027344 Z M 422.339844 134.027344 " fill-opacity="1" fill-rule="nonzero"/><path fill="#bb5122" d="M 418.953125 146.746094 C 411.976562 141.886719 407.382812 149.609375 406.277344 151.769531 C 406.210938 153.734375 403.929688 153.027344 402.855469 152.367188 C 402.109375 151.910156 401.609375 151.289062 401.304688 150.457031 C 401.101562 149.902344 400.996094 149.269531 400.582031 148.820312 C 400.183594 148.382812 399.566406 148.265625 399.007812 148.175781 C 398.027344 148.019531 397.082031 147.90625 396.324219 147.1875 C 395.660156 146.558594 395.339844 145.628906 394.503906 145.171875 C 393.703125 144.734375 392.714844 144.871094 391.878906 144.53125 C 391.050781 144.199219 390.519531 143.445312 390.109375 142.683594 C 389.804688 142.125 389.578125 141.453125 389.035156 141.074219 C 388.214844 140.5 387 140.546875 386.066406 140.742188 C 384.042969 141.171875 382.292969 142.453125 380.191406 142.613281 C 379.113281 142.691406 378.109375 142.242188 377.046875 142.277344 C 375.96875 142.3125 375.074219 143.242188 374.226562 143.808594 C 373.363281 144.386719 372.339844 144.746094 371.289062 144.6875 C 370.402344 144.636719 369.609375 144.277344 368.777344 144.003906 C 367.980469 143.742188 367.117188 143.546875 366.332031 143.941406 C 365.628906 144.296875 365.09375 144.9375 364.660156 145.574219 C 364.074219 146.429688 363.628906 147.363281 363.164062 148.285156 C 363.007812 150.875 363.074219 153.660156 363.703125 155.886719 C 364.695312 159.417969 368.171875 183.515625 376.007812 191.136719 C 381.660156 196.628906 392.300781 195.488281 396.957031 193.832031 C 405.921875 190.648438 411.863281 185.578125 414.683594 178.042969 C 416.371094 173.523438 417.078125 170.941406 415.914062 165.054688 C 415.914062 165.054688 418.285156 163.683594 420.628906 160.570312 C 422.695312 157.832031 424.015625 150.277344 418.953125 146.746094 Z M 418.953125 146.746094 " fill-opacity="1" fill-rule="nonzero"/><path fill="#1a1a1a" d="M 394.640625 164.785156 C 394.5625 164.207031 394.335938 163.707031 393.953125 163.265625 C 393.902344 163.203125 393.847656 163.148438 393.785156 163.101562 C 393.65625 162.996094 393.523438 162.878906 393.371094 162.804688 C 393.066406 162.660156 392.75 162.550781 392.402344 162.574219 C 392.078125 162.59375 391.765625 162.664062 391.484375 162.839844 C 391.195312 163.015625 390.996094 163.234375 390.804688 163.507812 C 390.523438 163.90625 390.417969 164.398438 390.375 164.875 C 390.351562 165.152344 390.394531 165.433594 390.441406 165.707031 C 390.46875 165.855469 390.519531 165.992188 390.582031 166.132812 C 390.640625 166.273438 390.695312 166.402344 390.789062 166.527344 C 390.917969 166.699219 391.019531 166.816406 391.160156 166.9375 C 391.296875 167.085938 391.445312 167.222656 391.628906 167.316406 C 391.929688 167.472656 392.28125 167.570312 392.621094 167.535156 C 392.96875 167.5 393.296875 167.421875 393.597656 167.230469 C 393.898438 167.035156 394.128906 166.800781 394.324219 166.503906 C 394.417969 166.359375 394.476562 166.195312 394.539062 166.039062 C 394.574219 165.945312 394.601562 165.847656 394.621094 165.75 C 394.675781 165.410156 394.6875 165.121094 394.640625 164.785156 Z M 394.640625 164.785156 " fill-opacity="1" fill-rule="nonzero"/><path fill="#1a1a1a" d="M 396.859375 156.207031 C 394.292969 154.707031 391.441406 153.699219 388.496094 153.28125 C 387.867188 153.191406 387.234375 153.433594 387.050781 154.101562 C 386.898438 154.652344 387.238281 155.457031 387.871094 155.546875 C 390.65625 155.941406 393.269531 156.832031 395.675781 158.234375 C 396.984375 158.996094 398.167969 156.964844 396.859375 156.207031 Z M 396.859375 156.207031 " fill-opacity="1" fill-rule="nonzero"/><path fill="#9b3522" d="M 384.484375 177.550781 L 384.300781 177.316406 C 384.152344 177.167969 383.980469 177.066406 383.78125 177.011719 L 382.460938 176.828125 C 382.308594 176.78125 382.148438 176.773438 381.996094 176.808594 C 381.835938 176.8125 381.691406 176.859375 381.558594 176.945312 C 381.421875 177.019531 381.3125 177.121094 381.230469 177.25 C 381.125 177.363281 381.054688 177.496094 381.019531 177.648438 C 381.007812 177.753906 380.992188 177.855469 380.976562 177.960938 C 380.980469 178.171875 381.03125 178.371094 381.136719 178.554688 C 381.199219 178.632812 381.261719 178.710938 381.320312 178.792969 C 381.46875 178.9375 381.640625 179.039062 381.839844 179.09375 L 383.160156 179.277344 C 383.316406 179.328125 383.472656 179.332031 383.628906 179.296875 C 383.785156 179.292969 383.929688 179.246094 384.0625 179.160156 C 384.199219 179.085938 384.308594 178.984375 384.390625 178.855469 C 384.496094 178.742188 384.566406 178.609375 384.601562 178.457031 C 384.617188 178.351562 384.628906 178.25 384.644531 178.144531 C 384.640625 177.933594 384.589844 177.734375 384.484375 177.550781 Z M 384.484375 177.550781 " fill-opacity="1" fill-rule="nonzero"/><path fill="#ffffff" d="M 380.824219 183.746094 L 388.550781 180.808594 C 388.550781 180.808594 390.253906 186.53125 386.542969 187.226562 C 382.832031 187.921875 380.824219 183.746094 380.824219 183.746094 Z M 380.824219 183.746094 " fill-opacity="1" fill-rule="nonzero"/><path fill="#1a1a1a" d="M 373.058594 169.476562 C 372.921875 168.941406 372.578125 168.476562 372.113281 168.191406 C 371.984375 168.113281 371.839844 168.058594 371.703125 168.007812 C 371.640625 167.984375 371.578125 167.964844 371.511719 167.953125 C 371.1875 167.890625 370.90625 167.882812 370.582031 167.960938 C 370.4375 167.996094 370.292969 168.0625 370.164062 168.128906 C 370.023438 168.203125 369.898438 168.304688 369.789062 168.410156 C 369.738281 168.457031 369.707031 168.515625 369.667969 168.566406 C 369.429688 168.800781 369.246094 169.085938 369.140625 169.414062 C 369.09375 169.566406 369.082031 169.734375 369.070312 169.890625 C 369.066406 169.921875 369.070312 169.957031 369.070312 169.988281 C 369.050781 170.097656 369.039062 170.210938 369.042969 170.316406 C 369.054688 170.453125 369.070312 170.621094 369.121094 170.761719 C 369.171875 170.898438 369.226562 171.046875 369.3125 171.171875 C 369.402344 171.300781 369.5 171.417969 369.605469 171.519531 C 369.609375 171.527344 369.613281 171.535156 369.617188 171.539062 C 369.757812 171.746094 369.914062 171.921875 370.089844 172.085938 C 370.15625 172.144531 370.21875 172.210938 370.296875 172.265625 C 370.320312 172.28125 370.355469 172.285156 370.382812 172.300781 C 370.410156 172.320312 370.433594 172.339844 370.460938 172.351562 C 370.597656 172.421875 370.746094 172.496094 370.898438 172.53125 C 371.191406 172.601562 371.5 172.605469 371.789062 172.523438 C 372.089844 172.433594 372.324219 172.285156 372.558594 172.085938 C 372.707031 171.957031 372.835938 171.792969 372.925781 171.621094 C 372.988281 171.496094 373.050781 171.359375 373.082031 171.222656 C 373.117188 171.085938 373.140625 170.929688 373.132812 170.78125 C 373.125 170.710938 373.113281 170.644531 373.101562 170.578125 C 373.160156 170.214844 373.148438 169.832031 373.058594 169.476562 Z M 373.058594 169.476562 " fill-opacity="1" fill-rule="nonzero"/><path fill="#1a1a1a" d="M 369.769531 160.886719 C 369.605469 160.636719 369.367188 160.414062 369.066406 160.347656 C 368.742188 160.273438 368.464844 160.324219 368.164062 160.464844 C 366.441406 161.261719 364.988281 162.5625 363.929688 164.128906 C 363.582031 164.636719 363.816406 165.453125 364.351562 165.734375 C 364.941406 166.046875 365.585938 165.859375 365.957031 165.3125 C 366.03125 165.199219 366.117188 165.089844 366.195312 164.976562 C 366.636719 164.425781 367.136719 163.929688 367.6875 163.488281 C 368.207031 163.101562 368.757812 162.765625 369.347656 162.492188 C 369.597656 162.375 369.816406 162.046875 369.886719 161.789062 C 369.964844 161.511719 369.929688 161.136719 369.769531 160.886719 Z M 369.769531 160.886719 " fill-opacity="1" fill-rule="nonzero"/><path fill="#2e2e36" d="M 458.246094 805.273438 C 452.253906 805.273438 446.8125 805.238281 442.160156 805.164062 C 423.933594 804.871094 423.289062 804.226562 422.214844 803.152344 C 421.066406 802.003906 420.792969 801.734375 421.167969 785.714844 C 421.371094 776.847656 421.808594 763.945312 422.457031 747.367188 C 423.554688 719.464844 425.277344 680.761719 427.574219 632.324219 C 431.492188 549.863281 435.785156 466.65625 435.828125 465.828125 C 435.917969 464.097656 437.410156 462.769531 439.117188 462.863281 C 440.84375 462.953125 442.167969 464.425781 442.078125 466.152344 C 435.636719 590.828125 426.664062 776.898438 427.289062 798.339844 C 434.265625 799.011719 459.929688 799.300781 495.03125 798.640625 C 534.816406 797.890625 557.449219 796.492188 563.421875 795.378906 C 563.226562 775.035156 544.546875 589.632812 531.582031 465.652344 C 531.402344 463.933594 532.648438 462.394531 534.371094 462.214844 C 536.082031 462.035156 537.628906 463.28125 537.808594 465.003906 C 537.890625 465.824219 546.484375 548.039062 554.644531 629.683594 C 559.4375 677.640625 563.144531 716.023438 565.667969 743.757812 C 570.511719 797.089844 569.90625 798 568.992188 799.375 C 567.988281 800.878906 566.386719 801.507812 558.882812 802.25 C 542.722656 803.851562 507.015625 804.796875 481.347656 805.121094 C 473.160156 805.222656 465.320312 805.273438 458.246094 805.273438 Z M 427.410156 800.089844 Z M 563.371094 796.894531 Z M 563.371094 796.894531 " fill-opacity="1" fill-rule="nonzero"/><path fill="#9eb4b4" d="M 538.789062 443.496094 L 212.566406 443.496094 C 207.40625 443.496094 203.179688 447.722656 203.179688 452.886719 L 203.179688 457.46875 C 203.179688 462.632812 207.40625 466.859375 212.566406 466.859375 L 538.789062 466.859375 C 543.949219 466.859375 548.175781 462.632812 548.175781 457.46875 L 548.175781 452.886719 C 548.175781 447.722656 543.949219 443.496094 538.789062 443.496094 Z M 538.789062 443.496094 " fill-opacity="1" fill-rule="nonzero"/><path fill="#ececec" d="M 386.453125 372.394531 C 387.84375 371.464844 456.929688 371.929688 478.71875 380.742188 C 500.511719 389.558594 504.222656 399.300781 502.367188 403.011719 C 500.511719 406.722656 485.210938 399.300781 473.15625 394.660156 C 461.101562 390.023438 419.835938 389.09375 404.070312 394.199219 C 388.308594 399.300781 354.921875 406.722656 334.523438 402.082031 C 314.121094 397.445312 275.171875 390.023438 254.308594 389.09375 C 233.445312 388.167969 219.996094 394.195312 211.652344 398.835938 C 203.304688 403.476562 207.109375 392.714844 215.175781 385.800781 C 223.242188 378.886719 249.578125 364.832031 265.855469 363.277344 C 282.128906 361.722656 386.453125 372.394531 386.453125 372.394531 Z M 386.453125 372.394531 " fill-opacity="1" fill-rule="nonzero"/><path fill="#ffffff" d="M 211.941406 396.890625 C 211.941406 396.890625 205.78125 398.429688 212.867188 390.726562 C 219.953125 383.019531 242.746094 372.234375 251.679688 369.152344 C 260.613281 366.070312 261.535156 365.453125 258.765625 364.527344 C 255.992188 363.605469 227.652344 375.007812 215.640625 383.945312 C 203.628906 392.882812 197.328125 401.976562 203.507812 404.398438 C 209.722656 406.832031 211.941406 396.890625 211.941406 396.890625 Z M 211.941406 396.890625 " fill-opacity="1" fill-rule="nonzero"/><path fill="#ffffff" d="M 446.585938 374.738281 C 446.585938 374.738281 466.472656 374.4375 485.652344 381.492188 C 508.632812 389.941406 506.828125 403.710938 502.550781 407.691406 C 498.273438 411.671875 493.191406 402.652344 493.191406 402.652344 L 495.160156 401.011719 C 495.160156 401.011719 500.558594 404.011719 499.902344 397.941406 C 499.25 391.875 490.078125 385.101562 477.621094 382.476562 C 465.160156 379.851562 457.292969 378.703125 446.636719 378.703125 C 435.980469 378.703125 442.601562 375.207031 446.585938 374.738281 Z M 446.585938 374.738281 " fill-opacity="1" fill-rule="nonzero"/><path fill="#e99167" d="M 308.550781 387.515625 C 308.550781 387.515625 308.453125 387.183594 308.292969 386.585938 C 307.558594 383.847656 305.480469 375.550781 305.152344 368.332031 C 304.753906 359.539062 321.132812 356.742188 321.132812 356.742188 C 321.132812 356.742188 323.929688 381.722656 321.332031 384.917969 Z M 308.550781 387.515625 " fill-opacity="1" fill-rule="nonzero"/><path fill="#e99167" d="M 308.015625 368.132812 C 311.480469 365.867188 318.535156 358.539062 319.867188 357.472656 C 319.867188 357.472656 315.742188 356.804688 314.675781 354.007812 C 313.609375 351.210938 308.285156 351.078125 309.082031 347.347656 C 309.882812 343.617188 306.617188 343.515625 308.382812 340.566406 C 310.148438 337.621094 311.457031 339.554688 312 336.855469 C 312.542969 334.15625 313.875 334.820312 315.207031 334.15625 C 316.539062 333.488281 316.234375 331.992188 318.449219 332.074219 C 320.667969 332.15625 325.59375 335.886719 328.390625 338.953125 C 331.1875 342.015625 336.511719 343.214844 344.367188 347.613281 C 352.222656 352.011719 353.957031 353.742188 353.957031 353.742188 C 353.957031 353.742188 362.34375 353.609375 367.804688 354.40625 C 373.265625 355.207031 371.132812 401.707031 371.132812 401.707031 C 371.132812 401.707031 360.878906 400.773438 354.753906 399.972656 C 348.628906 399.175781 348.496094 398.375 348.496094 398.375 C 348.496094 398.375 345.300781 402.503906 336.644531 403.835938 C 327.988281 405.171875 311.34375 398.375 309.480469 397.84375 C 307.613281 397.308594 299.226562 398.640625 298.425781 396.109375 C 297.628906 393.578125 299.359375 393.84375 298.292969 392.113281 C 297.230469 390.382812 298.027344 388.648438 299.09375 387.71875 C 300.160156 386.785156 297.09375 385.050781 298.292969 382.789062 C 299.492188 380.523438 301.222656 380.921875 301.621094 379.722656 C 302.023438 378.523438 303.886719 377.859375 306.285156 378.257812 C 306.285156 378.257812 313.207031 380.390625 316.9375 380.65625 C 320.664062 380.921875 308.148438 367.867188 308.148438 367.867188 " fill-opacity="1" fill-rule="nonzero"/><path fill="#ffffff" d="M 389.746094 389.617188 C 386.964844 389.027344 384.769531 388.296875 382.824219 386.125 C 380.996094 384.078125 379.453125 381.746094 378.113281 379.355469 C 375.386719 374.496094 373.671875 369.160156 372.929688 363.644531 C 372.78125 362.542969 371.363281 361.933594 370.398438 362.207031 C 369.207031 362.539062 368.808594 363.625 368.960938 364.738281 C 369.789062 370.898438 371.867188 376.882812 375.019531 382.242188 C 376.539062 384.816406 378.300781 387.382812 380.378906 389.539062 C 382.679688 391.921875 385.484375 392.917969 388.652344 393.589844 C 391.238281 394.132812 392.34375 390.164062 389.746094 389.617188 Z M 389.746094 389.617188 " fill-opacity="1" fill-rule="nonzero"/><path fill="#ffffff" d="M 275.710938 388.957031 C 275.761719 389.109375 275.785156 389.011719 275.710938 388.957031 Z M 275.710938 388.957031 " fill-opacity="1" fill-rule="nonzero"/><path fill="#e99167" d="M 375.660156 395.511719 C 375.660156 395.511719 381.253906 401.707031 396.832031 394.710938 C 412.414062 387.71875 418.40625 378.726562 418.40625 378.726562 C 418.40625 378.726562 431.1875 391.515625 436.382812 392.113281 C 441.574219 392.714844 446.570312 387.519531 454.757812 382.324219 C 462.945312 377.125 470.335938 372.53125 470.136719 367.933594 C 469.9375 363.335938 471.734375 357.339844 466.34375 357.742188 C 460.949219 358.140625 452.160156 364.136719 448.765625 363.535156 C 445.371094 362.9375 426.792969 352.34375 415.210938 349.945312 C 403.625 347.546875 395.234375 349.546875 393.4375 354.941406 C 391.640625 360.335938 375.660156 395.511719 375.660156 395.511719 Z M 375.660156 395.511719 " fill-opacity="1" fill-rule="nonzero"/><path fill="#ff9cb3" d="M 376.460938 351.542969 C 376.460938 351.542969 371.464844 353.34375 367.472656 353.34375 C 363.476562 353.34375 361.679688 368.132812 361.480469 376.125 C 361.28125 384.121094 361.480469 399.109375 365.675781 402.308594 C 369.867188 405.503906 391.839844 404.90625 400.429688 397.511719 C 409.019531 390.117188 408.816406 379.125 405.621094 371.929688 C 402.425781 364.734375 387.046875 350.144531 376.460938 351.542969 Z M 376.460938 351.542969 " fill-opacity="1" fill-rule="nonzero"/><path fill="#e99167" d="M 371.175781 359.972656 C 371.175781 359.972656 361.214844 377.6875 375.878906 387.929688 C 390.542969 398.171875 404.652344 384.054688 408.246094 375.195312 C 411.84375 366.339844 411.566406 364.679688 411.566406 364.679688 C 411.566406 364.679688 434.253906 369.9375 440.339844 366.617188 C 446.425781 363.292969 446.148438 356.925781 447.53125 351.945312 C 448.917969 346.960938 453.34375 338.933594 451.960938 334.78125 C 450.578125 330.628906 448.363281 329.246094 445.597656 329.796875 C 442.832031 330.351562 437.296875 338.65625 432.039062 340.59375 C 426.785156 342.53125 411.292969 330.351562 399.117188 333.121094 C 386.945312 335.890625 377.816406 343.640625 371.175781 359.972656 Z M 371.175781 359.972656 " fill-opacity="1" fill-rule="nonzero"/><path fill="#d87853" d="M 443.503906 362.027344 C 443.066406 361.628906 442.261719 361.523438 441.84375 362.027344 C 441.410156 362.539062 440.949219 363.027344 440.445312 363.472656 C 440.320312 363.585938 440.195312 363.695312 440.066406 363.800781 C 439.992188 363.859375 439.921875 363.917969 439.847656 363.976562 C 439.835938 363.984375 439.828125 363.992188 439.816406 364 C 439.535156 364.210938 439.246094 364.414062 438.949219 364.605469 C 438.382812 364.96875 437.792969 365.289062 437.179688 365.5625 C 437.171875 365.570312 437.117188 365.59375 437.074219 365.609375 C 437.035156 365.628906 436.910156 365.679688 436.894531 365.6875 C 436.738281 365.75 436.582031 365.808594 436.421875 365.863281 C 436.089844 365.980469 435.75 366.085938 435.410156 366.179688 C 435.324219 366.203125 435.242188 366.238281 435.164062 366.28125 C 433.476562 366.65625 431.753906 366.617188 430.027344 366.539062 C 428.007812 366.441406 425.988281 366.257812 423.984375 365.957031 C 420.210938 365.394531 416.5 364.476562 412.886719 363.253906 C 413.332031 361.433594 413.730469 359.609375 414.097656 357.800781 C 414.398438 356.324219 412.136719 355.695312 411.835938 357.175781 C 409.652344 367.941406 406.539062 379.785156 397.320312 386.753906 C 396.132812 387.652344 397.300781 389.691406 398.503906 388.78125 C 406.101562 383.039062 409.890625 374.460938 412.300781 365.53125 C 416.132812 366.824219 420.074219 367.769531 424.082031 368.324219 C 428.003906 368.867188 432.402344 369.488281 436.28125 368.429688 C 436.433594 368.386719 436.5625 368.320312 436.671875 368.242188 C 439.308594 367.394531 441.71875 365.816406 443.5 363.6875 C 443.894531 363.214844 443.996094 362.480469 443.503906 362.027344 Z M 443.503906 362.027344 " fill-opacity="1" fill-rule="nonzero"/><path fill="#d87853" d="M 333.21875 381.054688 C 332.398438 380.894531 331.578125 380.757812 330.757812 380.613281 C 330.792969 380.585938 330.824219 380.558594 330.859375 380.535156 C 331.027344 380.410156 331.199219 380.289062 331.371094 380.171875 C 332.058594 379.703125 332.78125 379.28125 333.53125 378.917969 C 334.085938 378.644531 334.277344 377.816406 333.953125 377.308594 C 333.585938 376.742188 332.9375 376.597656 332.347656 376.886719 C 330.738281 377.675781 329.253906 378.714844 327.9375 379.933594 C 327.886719 379.980469 327.859375 380.046875 327.820312 380.105469 C 326.644531 379.914062 325.46875 379.722656 324.289062 379.546875 C 321.542969 379.132812 318.703125 378.820312 316.027344 379.789062 C 314.621094 380.300781 315.226562 382.570312 316.652344 382.054688 C 319.121094 381.160156 321.722656 381.507812 324.257812 381.902344 C 327.042969 382.335938 329.828125 382.777344 332.59375 383.316406 C 334.070312 383.605469 334.699219 381.339844 333.21875 381.054688 Z M 333.21875 381.054688 " fill-opacity="1" fill-rule="nonzero"/><path fill="#d87853" d="M 350.882812 352.257812 C 345.234375 352.027344 339.574219 352.179688 333.949219 352.734375 C 331.285156 353 328.613281 353.320312 325.976562 353.792969 C 323.625 354.21875 321.289062 354.894531 319.3125 356.28125 C 318.082031 357.140625 318.339844 357.992188 319.582031 357.125 C 321.453125 355.8125 324.511719 355.417969 326.738281 355.027344 C 329.367188 354.566406 331.234375 354.578125 333.890625 354.328125 C 339.265625 353.832031 345.488281 354.386719 350.882812 354.605469 C 352.394531 354.667969 352.390625 352.320312 350.882812 352.257812 Z M 350.882812 352.257812 " fill-opacity="1" fill-rule="nonzero"/><path fill="#d87853" d="M 466.730469 363.519531 C 463.304688 362.972656 461.222656 366.273438 459.308594 368.558594 C 457.003906 371.304688 454.695312 373.984375 451.898438 376.242188 C 449.175781 378.4375 446.191406 380.285156 443.238281 382.132812 C 440.648438 383.75 437.613281 385.882812 437.96875 389.359375 C 438.117188 390.847656 440.46875 390.863281 440.316406 389.359375 C 439.996094 386.230469 443.699219 384.621094 445.894531 383.238281 C 448.433594 381.640625 450.9375 379.988281 453.285156 378.121094 C 455.707031 376.195312 457.796875 373.988281 459.789062 371.625 C 460.816406 370.402344 461.832031 369.167969 462.871094 367.953125 C 463.617188 367.078125 464.785156 365.574219 466.105469 365.78125 C 467.582031 366.019531 468.21875 363.757812 466.730469 363.519531 Z M 466.730469 363.519531 " fill-opacity="1" fill-rule="nonzero"/><path fill="#d87853" d="M 424.78125 371.308594 C 424.226562 370.984375 423.5 371.183594 423.175781 371.730469 C 421.453125 374.613281 419.410156 377.160156 416.964844 379.484375 C 416.507812 379.917969 416.527344 380.703125 416.964844 381.144531 C 417.425781 381.601562 418.164062 381.582031 418.625 381.144531 C 421.175781 378.71875 423.394531 375.9375 425.203125 372.917969 C 425.527344 372.371094 425.324219 371.625 424.78125 371.308594 Z M 424.78125 371.308594 " fill-opacity="1" fill-rule="nonzero"/><path fill="#d87853" d="M 352.703125 388.394531 C 351.914062 384.417969 350.023438 380.207031 346.046875 378.605469 C 344.644531 378.042969 344.035156 380.3125 345.421875 380.871094 C 348.539062 382.121094 349.84375 386.011719 350.441406 389.019531 C 351.160156 392.636719 350.585938 396.613281 347.789062 399.222656 C 346.683594 400.253906 348.34375 401.914062 349.449219 400.882812 C 352.875 397.6875 353.578125 392.816406 352.703125 388.394531 Z M 352.703125 388.394531 " fill-opacity="1" fill-rule="nonzero"/><path fill="#e99167" d="M 312.347656 369.925781 C 312.210938 369.363281 313.980469 362.027344 308.820312 354.609375 C 303.660156 347.191406 296.703125 346.429688 292.632812 346.8125 C 288.558594 347.191406 286.726562 343.738281 278.519531 342.910156 C 270.3125 342.082031 261.0625 349.703125 258 358.90625 C 254.941406 368.109375 253.167969 374.621094 257.328125 381.09375 C 260.71875 386.375 266.105469 390.800781 273.730469 393.808594 C 278.417969 395.65625 292.558594 396.550781 300.296875 391.03125 C 308.039062 385.515625 312.347656 369.925781 312.347656 369.925781 Z M 312.347656 369.925781 " fill-opacity="1" fill-rule="nonzero"/><path fill="#d87853" d="M 324.457031 339.585938 C 324.15625 337.800781 323.152344 336.128906 321.761719 334.976562 C 321.277344 334.570312 320.582031 334.5 320.101562 334.976562 C 319.6875 335.394531 319.613281 336.230469 320.101562 336.636719 C 320.972656 337.363281 321.65625 338.261719 321.992188 339.355469 C 322.203125 340.039062 322.574219 341.578125 321.601562 341.855469 C 320.714844 342.109375 320.503906 343.164062 321.082031 343.816406 C 321.339844 344.109375 322.054688 344.785156 321.726562 345.195312 C 321.601562 345.347656 321.125 345.46875 320.964844 345.542969 C 320.613281 345.703125 320.335938 345.886719 320.039062 346.136719 C 319.75 346.375 319.59375 346.929688 319.734375 347.277344 C 320.007812 347.945312 319.75 348.445312 319.125 348.5 C 318.988281 348.097656 318.820312 347.703125 318.570312 347.363281 C 318.105469 346.730469 317.429688 346.304688 316.621094 346.378906 C 315.847656 346.449219 315.242188 346.917969 314.777344 347.511719 C 313.097656 349.652344 312.515625 352.785156 314.183594 355.125 C 314.539062 355.621094 315.222656 355.910156 315.789062 355.546875 C 316.285156 355.226562 316.59375 354.472656 316.210938 353.9375 C 316.074219 353.746094 315.964844 353.546875 315.847656 353.34375 C 315.824219 353.300781 315.8125 353.28125 315.804688 353.269531 C 315.800781 353.257812 315.796875 353.238281 315.78125 353.199219 C 315.734375 353.070312 315.691406 352.941406 315.65625 352.808594 C 315.625 352.695312 315.597656 352.582031 315.574219 352.46875 C 315.566406 352.421875 315.558594 352.378906 315.550781 352.332031 C 315.550781 352.324219 315.550781 352.328125 315.550781 352.320312 C 315.527344 352.085938 315.519531 351.851562 315.53125 351.617188 C 315.53125 351.578125 315.550781 351.324219 315.546875 351.363281 C 315.550781 351.34375 315.550781 351.332031 315.558594 351.292969 C 315.570312 351.214844 315.585938 351.140625 315.601562 351.0625 C 315.652344 350.835938 315.71875 350.613281 315.792969 350.390625 C 315.804688 350.367188 315.863281 350.21875 315.875 350.1875 C 315.914062 350.097656 315.953125 350.011719 316 349.921875 C 316.105469 349.714844 316.222656 349.511719 316.351562 349.316406 C 316.417969 349.21875 316.484375 349.125 316.554688 349.027344 C 316.441406 349.183594 316.648438 348.917969 316.652344 348.910156 C 316.675781 348.882812 316.707031 348.859375 316.734375 348.832031 C 316.738281 348.839844 316.742188 348.847656 316.746094 348.855469 C 316.773438 348.902344 316.804688 348.96875 316.816406 348.992188 C 316.839844 349.054688 316.863281 349.117188 316.882812 349.179688 C 316.96875 349.429688 317.042969 349.6875 317.117188 349.941406 C 317.277344 350.5 317.410156 351.058594 317.523438 351.625 C 317.644531 352.230469 318.394531 352.632812 318.964844 352.445312 C 319.605469 352.238281 319.914062 351.648438 319.785156 351.003906 C 319.773438 350.933594 319.753906 350.867188 319.742188 350.800781 C 321.238281 350.496094 322.332031 349.054688 322.207031 347.527344 C 322.441406 347.4375 322.683594 347.359375 322.890625 347.234375 C 323.445312 346.898438 323.890625 346.386719 324.058594 345.75 C 324.300781 344.832031 324.046875 344.015625 323.597656 343.28125 C 324.460938 342.351562 324.683594 340.914062 324.457031 339.585938 Z M 324.457031 339.585938 " fill-opacity="1" fill-rule="nonzero"/><path fill="#d87853" d="M 312.425781 359.324219 C 311.878906 357.917969 310.738281 357.730469 311.125 359.195312 C 312.21875 363.355469 311.984375 367.710938 310.511719 371.746094 C 310.296875 372.339844 310.757812 373.03125 311.332031 373.1875 C 311.984375 373.367188 312.558594 372.96875 312.777344 372.367188 C 314.386719 367.960938 313.621094 362.421875 312.425781 359.324219 Z M 312.425781 359.324219 " fill-opacity="1" fill-rule="nonzero"/><path fill="#1a1a1a" d="M 288.769531 363.984375 C 288.550781 363.246094 288.003906 362.542969 287.292969 362.222656 C 286.765625 361.980469 286.183594 361.871094 285.613281 362.054688 C 285.097656 362.21875 284.597656 362.5625 284.355469 363.0625 C 284.21875 363.34375 284.117188 363.644531 284.136719 363.964844 C 284.148438 364.121094 284.171875 364.265625 284.207031 364.40625 C 284.210938 365.292969 284.777344 366.152344 285.5625 366.542969 C 285.96875 366.75 286.433594 366.894531 286.894531 366.871094 C 287.414062 366.839844 287.957031 366.664062 288.3125 366.261719 C 288.863281 365.636719 289.007812 364.777344 288.769531 363.984375 Z M 288.769531 363.984375 " fill-opacity="1" fill-rule="nonzero"/><path fill="#1a1a1a" d="M 292.492188 348.316406 C 292.460938 348.171875 292.386719 348.019531 292.328125 347.894531 C 292.246094 347.710938 292.117188 347.542969 291.976562 347.40625 C 291.753906 347.183594 291.507812 347.050781 291.210938 346.949219 C 291.007812 346.878906 290.777344 346.851562 290.558594 346.878906 C 290.410156 346.898438 290.238281 346.910156 290.089844 346.960938 C 289.945312 347.011719 289.796875 347.070312 289.660156 347.144531 C 289.523438 347.222656 289.402344 347.324219 289.285156 347.421875 C 289.238281 347.460938 289.191406 347.503906 289.152344 347.554688 C 288.9375 347.8125 288.789062 348.039062 288.6875 348.367188 C 288.589844 348.6875 288.605469 348.996094 288.664062 349.320312 C 288.6875 349.4375 288.730469 349.535156 288.777344 349.648438 C 288.828125 349.761719 288.867188 349.867188 288.941406 349.964844 C 289.144531 350.246094 289.339844 350.453125 289.640625 350.636719 C 290.121094 350.933594 290.765625 351.039062 291.308594 350.863281 C 291.597656 350.773438 291.855469 350.589844 292.011719 350.324219 C 292.058594 350.25 292.089844 350.175781 292.113281 350.09375 C 292.15625 350.039062 292.199219 349.980469 292.238281 349.921875 C 292.359375 349.765625 292.4375 349.566406 292.488281 349.375 C 292.539062 349.179688 292.570312 348.964844 292.554688 348.761719 C 292.542969 348.613281 292.527344 348.460938 292.492188 348.316406 Z M 292.492188 348.316406 " fill-opacity="1" fill-rule="nonzero"/><path fill="#d86a53" d="M 295.839844 354.265625 C 295.847656 354.101562 295.8125 353.953125 295.742188 353.8125 C 295.691406 353.667969 295.613281 353.539062 295.5 353.433594 C 295.390625 353.320312 295.265625 353.238281 295.121094 353.191406 C 294.980469 353.117188 294.832031 353.085938 294.667969 353.089844 C 294.367188 353.105469 294.050781 353.203125 293.839844 353.433594 L 293.65625 353.671875 C 293.550781 353.855469 293.496094 354.050781 293.496094 354.265625 C 293.5625 354.796875 293.632812 355.332031 293.699219 355.867188 C 293.695312 356.027344 293.726562 356.179688 293.800781 356.320312 C 293.847656 356.464844 293.929688 356.589844 294.042969 356.695312 C 294.148438 356.8125 294.273438 356.890625 294.421875 356.9375 C 294.5625 357.011719 294.710938 357.046875 294.875 357.039062 C 295.175781 357.027344 295.492188 356.925781 295.703125 356.695312 L 295.886719 356.460938 C 295.992188 356.277344 296.046875 356.078125 296.046875 355.867188 C 295.976562 355.332031 295.910156 354.796875 295.839844 354.265625 Z M 295.839844 354.265625 " fill-opacity="1" fill-rule="nonzero"/><path fill="#ffffff" d="M 303.863281 355.667969 C 303.171875 354.417969 300.902344 353.484375 299.242188 352.988281 C 299.113281 355.066406 298.652344 357.683594 298.214844 359.730469 C 298.117188 360.007812 298.027344 360.292969 298.03125 360.582031 C 298.046875 361.65625 299.042969 361.933594 299.90625 362.054688 C 300.742188 362.171875 301.542969 362.136719 302.320312 361.785156 C 303.347656 361.316406 304.066406 360.292969 304.347656 359.21875 C 304.671875 358.007812 304.464844 356.757812 303.863281 355.667969 Z M 303.863281 355.667969 " fill-opacity="1" fill-rule="nonzero"/><path fill="#da6f3a" d="M 281.355469 366.96875 C 281.332031 366.910156 280.921875 365.761719 280.839844 365.484375 C 280.375 363.96875 280.394531 362.625 280.394531 362.332031 C 280.390625 361.746094 280.429688 361.164062 280.503906 360.585938 C 280.582031 359.972656 279.90625 359.382812 279.328125 359.410156 C 278.628906 359.441406 278.238281 359.929688 278.15625 360.585938 C 277.828125 363.175781 278.28125 365.773438 279.328125 368.152344 C 279.578125 368.71875 280.445312 368.890625 280.933594 368.574219 C 281.519531 368.199219 281.621094 367.570312 281.355469 366.96875 Z M 281.355469 366.96875 " fill-opacity="1" fill-rule="nonzero"/><path fill="#da6f3a" d="M 286.589844 343.617188 C 286.429688 343.367188 286.1875 343.148438 285.890625 343.078125 C 285.585938 343.007812 285.257812 343.027344 284.984375 343.195312 C 284.425781 343.542969 283.898438 343.976562 283.476562 344.484375 C 283.238281 344.769531 283.015625 345.066406 282.824219 345.386719 C 282.628906 345.714844 282.476562 346.0625 282.335938 346.417969 C 282.234375 346.683594 282.316406 347.085938 282.457031 347.320312 C 282.597656 347.566406 282.878906 347.796875 283.15625 347.863281 C 283.457031 347.929688 283.796875 347.914062 284.0625 347.742188 L 284.300781 347.558594 C 284.40625 347.453125 284.480469 347.324219 284.539062 347.1875 C 284.695312 346.828125 284.894531 346.488281 285.125 346.171875 C 285.34375 345.90625 285.585938 345.664062 285.851562 345.445312 C 285.953125 345.371094 286.058594 345.292969 286.167969 345.226562 C 286.421875 345.066406 286.628906 344.816406 286.707031 344.523438 C 286.785156 344.242188 286.75 343.867188 286.589844 343.617188 Z M 286.589844 343.617188 " fill-opacity="1" fill-rule="nonzero"/><path fill="#d86a53" d="M 334.390625 355.421875 C 334.339844 355.277344 334.261719 355.148438 334.144531 355.042969 C 334.039062 354.929688 333.914062 354.847656 333.769531 354.800781 C 333.628906 354.726562 333.480469 354.695312 333.316406 354.699219 C 333.214844 354.714844 333.109375 354.726562 333.003906 354.742188 C 332.804688 354.796875 332.632812 354.898438 332.488281 355.042969 C 332.425781 355.121094 332.363281 355.203125 332.304688 355.28125 C 332.199219 355.464844 332.144531 355.660156 332.144531 355.875 L 332.144531 356.40625 C 332.136719 356.566406 332.171875 356.71875 332.246094 356.859375 C 332.292969 357.003906 332.375 357.128906 332.488281 357.238281 C 332.59375 357.351562 332.71875 357.433594 332.863281 357.480469 C 333.003906 357.554688 333.15625 357.585938 333.316406 357.582031 C 333.421875 357.566406 333.523438 357.554688 333.628906 357.539062 C 333.828125 357.484375 334 357.382812 334.144531 357.238281 L 334.328125 357 C 334.4375 356.816406 334.488281 356.621094 334.488281 356.40625 L 334.488281 355.875 C 334.496094 355.710938 334.464844 355.5625 334.390625 355.421875 Z M 334.390625 355.421875 " fill-opacity="1" fill-rule="nonzero"/><path fill="#d86a53" d="M 336.332031 370.375 C 336.328125 370.21875 336.28125 370.070312 336.195312 369.9375 L 336.011719 369.699219 C 335.863281 369.554688 335.691406 369.453125 335.492188 369.398438 C 335.390625 369.386719 335.285156 369.371094 335.183594 369.355469 C 334.972656 369.359375 334.773438 369.410156 334.589844 369.515625 C 334.324219 369.695312 334.058594 369.871094 333.792969 370.050781 C 333.65625 370.125 333.542969 370.222656 333.460938 370.351562 C 333.359375 370.464844 333.289062 370.597656 333.253906 370.753906 C 333.203125 370.90625 333.195312 371.066406 333.230469 371.21875 C 333.238281 371.378906 333.285156 371.523438 333.371094 371.65625 C 333.433594 371.734375 333.492188 371.816406 333.554688 371.894531 C 333.699219 372.039062 333.875 372.140625 334.070312 372.195312 C 334.175781 372.210938 334.277344 372.222656 334.382812 372.238281 C 334.59375 372.238281 334.792969 372.183594 334.976562 372.078125 C 335.242188 371.898438 335.507812 371.722656 335.773438 371.546875 C 335.910156 371.472656 336.019531 371.371094 336.105469 371.242188 C 336.207031 371.128906 336.277344 370.996094 336.3125 370.84375 C 336.363281 370.683594 336.367188 370.53125 336.332031 370.375 Z M 336.332031 370.375 " fill-opacity="1" fill-rule="nonzero"/><path fill="#1a1a1a" d="M 269.59375 372.277344 C 269.597656 372.28125 269.613281 372.261719 269.640625 372.191406 C 269.640625 372.195312 269.636719 372.195312 269.636719 372.195312 C 269.625 372.226562 269.605469 372.246094 269.59375 372.277344 Z M 269.59375 372.277344 " fill-opacity="1" fill-rule="nonzero"/><path fill="#da6f3a" d="M 296.003906 383.683594 C 294.019531 381.6875 293.792969 385.617188 290.757812 387.9375 C 289.414062 388.964844 287.566406 388.824219 285.84375 388.4375 C 284.3125 388.085938 283.640625 388.113281 282.277344 387.34375 C 281.746094 387.042969 281.128906 386.6875 280.921875 386.078125 C 280.65625 385.285156 280.855469 384.402344 280.546875 383.59375 C 280.15625 382.574219 279.417969 381.753906 278.496094 381.234375 C 278.738281 379.097656 277.703125 377.21875 276.160156 375.78125 C 276.390625 375.574219 276.5625 375.296875 276.644531 374.929688 C 277.054688 373.175781 274.796875 371.171875 273.679688 370.101562 C 272.109375 368.597656 270.503906 367.125 268.917969 365.636719 C 267.683594 364.480469 266.472656 363.09375 264.925781 362.347656 C 265.851562 360.449219 266.355469 358.347656 266.355469 356.203125 C 266.355469 356.03125 266.324219 355.882812 266.269531 355.75 C 268.3125 354.464844 270.0625 352.667969 271.664062 350.902344 C 273.429688 348.960938 275.011719 346.71875 275.378906 344.101562 C 276.980469 343.417969 278.808594 342.4375 279.503906 340.816406 C 280.273438 339.003906 279.070312 337.277344 277.160156 337.21875 C 275.578125 337.171875 274.019531 337.78125 272.816406 338.792969 C 270.5 337.773438 267.34375 340.5625 265.835938 342.128906 C 264.136719 343.898438 262.78125 345.953125 261.546875 348.070312 C 261.078125 347.417969 260.453125 346.960938 259.621094 346.941406 C 257.660156 346.890625 256.261719 349.796875 255.605469 351.292969 C 254.246094 354.386719 253.914062 357.765625 253.867188 361.125 C 253.351562 360.789062 252.765625 360.671875 252.109375 361.019531 C 250.753906 361.742188 250.878906 363.585938 250.953125 364.863281 C 251.140625 368.175781 251.910156 371.386719 253.167969 374.441406 C 253.105469 375.070312 253.050781 375.703125 253.003906 376.332031 C 252.824219 378.863281 253.132812 381.230469 254.378906 383.476562 C 254.957031 384.515625 255.671875 385.46875 256.398438 386.410156 C 256.988281 387.179688 257.699219 388.09375 258.8125 387.753906 C 259.253906 387.617188 259.550781 387.339844 259.761719 386.996094 C 260.335938 388.195312 260.988281 389.347656 261.789062 390.410156 C 262.667969 391.578125 263.742188 392.839844 265.0625 393.515625 C 265.878906 393.933594 266.851562 394.011719 267.648438 393.679688 L 270.867188 395.914062 C 272.480469 397.035156 274.109375 398.46875 275.957031 399.179688 C 277.46875 399.757812 279.425781 399.578125 280.4375 398.179688 C 280.648438 397.894531 280.785156 397.578125 280.871094 397.25 C 281.734375 397.628906 282.605469 397.996094 283.492188 398.304688 C 284.847656 398.78125 286.347656 398.972656 287.71875 398.441406 C 288.664062 398.074219 289.597656 397.296875 289.828125 396.304688 C 292.164062 397.097656 293.777344 397.765625 296.609375 396.113281 C 299.261719 394.566406 297.632812 389.945312 298.183594 388.8125 C 298.804688 387.542969 296.925781 384.609375 296.003906 383.683594 Z M 296.003906 383.683594 " fill-opacity="1" fill-rule="nonzero"/><path fill="#e99167" d="M 294.605469 381.335938 C 294.191406 379.882812 291.925781 380.5 292.339844 381.957031 C 292.78125 383.507812 291.953125 385.132812 290.6875 386.039062 C 289.074219 387.195312 286.882812 387.257812 285 386.914062 C 283.035156 386.554688 281.265625 385.84375 280.605469 383.792969 C 280.019531 381.972656 280.378906 380.058594 281.484375 378.515625 C 281.855469 378 281.574219 377.207031 281.0625 376.910156 C 280.472656 376.5625 279.828125 376.8125 279.457031 377.332031 C 277.109375 380.609375 277.496094 386.085938 281.289062 388.160156 C 283.078125 389.140625 285.382812 389.519531 287.40625 389.421875 C 289.4375 389.328125 291.488281 388.664062 292.933594 387.179688 C 294.429688 385.648438 295.203125 383.4375 294.605469 381.335938 Z M 294.605469 381.335938 " fill-opacity="1" fill-rule="nonzero"/><path fill="#d87853" d="M 314.199219 377.929688 C 313.671875 377.21875 313.050781 376.605469 312.273438 376.164062 C 311.503906 375.726562 310.578125 375.347656 309.710938 375.222656 C 308.730469 375.082031 307.835938 375.101562 306.949219 375.65625 C 306.417969 375.988281 306.066406 376.441406 305.832031 376.960938 C 305.679688 376.929688 305.511719 376.929688 305.332031 376.96875 C 304.183594 377.210938 303.039062 376.921875 301.976562 377.5625 C 301.480469 377.859375 301.148438 378.28125 300.914062 378.800781 C 300.742188 379.183594 300.699219 379.582031 300.363281 379.851562 C 299.617188 380.449219 298.730469 380.578125 298.132812 381.414062 C 297.480469 382.320312 297.386719 383.460938 297.597656 384.535156 C 297.714844 385.132812 297.957031 385.671875 298.175781 386.238281 C 298.378906 386.773438 298.15625 386.859375 297.800781 387.28125 C 297.117188 388.082031 296.667969 388.96875 296.648438 390.042969 C 296.636719 390.550781 296.726562 391.066406 296.90625 391.535156 C 296.996094 391.78125 297.109375 392.023438 297.246094 392.246094 C 297.359375 392.429688 297.664062 392.65625 297.722656 392.863281 C 297.785156 393.085938 297.582031 393.453125 297.511719 393.761719 C 297.375 394.355469 297.4375 394.871094 297.726562 395.402344 C 298.4375 396.691406 300.375 395.597656 299.796875 394.3125 C 299.796875 394.304688 299.800781 394.296875 299.800781 394.285156 C 299.828125 394.183594 299.859375 394.082031 299.898438 393.980469 C 299.949219 393.804688 300.007812 393.636719 300.046875 393.460938 C 300.144531 392.996094 300.132812 392.550781 299.964844 392.109375 C 299.675781 391.355469 298.957031 390.925781 298.996094 390.042969 C 299.03125 389.160156 299.78125 388.695312 300.222656 388.003906 C 300.777344 387.136719 300.699219 386.261719 300.324219 385.34375 C 300.039062 384.636719 299.507812 383.511719 300.027344 382.785156 C 300.414062 382.246094 301.3125 382.066406 301.839844 381.671875 C 302.195312 381.402344 302.480469 381.078125 302.6875 380.679688 C 302.84375 380.371094 302.882812 379.859375 303.128906 379.613281 C 303.351562 379.386719 303.816406 379.40625 304.101562 379.394531 C 304.457031 379.382812 304.800781 379.371094 305.144531 379.34375 C 305.109375 381.457031 305.460938 383.675781 306.664062 385.414062 C 307.449219 386.550781 308.640625 387.398438 310.082031 387.125 C 310.203125 387.101562 310.316406 387.0625 310.429688 387.023438 C 310.601562 387.457031 310.417969 387.890625 310.171875 388.378906 C 309.847656 389.027344 309.925781 389.660156 310.078125 390.339844 C 310.15625 390.671875 310.183594 391.019531 310.089844 391.335938 C 309.992188 391.664062 309.914062 391.710938 309.660156 391.863281 C 309.074219 392.214844 308.519531 393.191406 309.074219 393.828125 C 309.078125 393.835938 309.089844 393.851562 309.101562 393.863281 C 309.050781 393.753906 309.25 393.726562 309.121094 393.886719 C 309.144531 393.910156 309.164062 393.933594 309.160156 393.933594 C 309.140625 393.917969 309.132812 393.902344 309.121094 393.890625 C 309.117188 393.894531 309.117188 393.894531 309.113281 393.898438 C 308.996094 394.035156 308.917969 394.1875 308.785156 394.316406 C 308.414062 394.695312 307.996094 395.019531 307.558594 395.316406 C 304.621094 395.777344 302.804688 394.214844 303.011719 394.382812 C 302.539062 393.996094 301.8125 393.882812 301.355469 394.382812 C 300.960938 394.8125 300.84375 395.628906 301.355469 396.042969 C 302.3125 396.824219 303.523438 397.171875 304.664062 397.605469 C 305.261719 397.832031 305.839844 398.066406 306.496094 398.003906 C 307.082031 397.949219 307.65625 397.789062 308.203125 397.574219 C 308.359375 397.554688 308.511719 397.507812 308.648438 397.417969 C 309.453125 396.878906 310.273438 396.269531 310.863281 395.488281 C 311.148438 395.109375 311.363281 394.691406 311.445312 394.222656 C 311.492188 393.953125 311.492188 393.6875 311.441406 393.421875 C 311.589844 393.300781 311.734375 393.164062 311.84375 393.019531 C 312.0625 392.71875 312.222656 392.382812 312.335938 392.027344 C 312.464844 391.625 312.515625 391.171875 312.5 390.746094 C 312.484375 390.386719 312.464844 389.796875 312.285156 389.46875 C 312.273438 389.449219 312.28125 389.4375 312.277344 389.421875 C 312.289062 389.402344 312.296875 389.390625 312.308594 389.367188 C 312.449219 389.175781 312.550781 388.921875 312.636719 388.699219 C 312.785156 388.3125 312.855469 387.886719 312.855469 387.46875 C 312.847656 386.714844 312.597656 386.011719 312.171875 385.410156 C 312.332031 385.054688 312.429688 384.671875 312.441406 384.277344 C 312.453125 383.644531 311.890625 383.105469 311.265625 383.105469 C 310.617188 383.105469 309.832031 383.699219 310.09375 384.277344 C 310.199219 384.519531 309.0625 384.96875 308.1875 383.34375 C 307.480469 382.027344 307.421875 380.402344 307.5 378.8125 C 307.730469 377.0625 309.851562 377.542969 310.761719 378.023438 C 310.769531 378.027344 312.085938 379.03125 312.136719 379.074219 C 312.425781 379.328125 313.320312 379.949219 313.777344 379.539062 C 314.207031 379.148438 314.589844 378.457031 314.199219 377.929688 Z M 314.199219 377.929688 " fill-opacity="1" fill-rule="nonzero"/><path fill="#a54322" d="M 309.105469 393.863281 C 309.105469 393.871094 309.113281 393.878906 309.121094 393.886719 C 309.117188 393.875 309.109375 393.871094 309.105469 393.863281 Z M 309.105469 393.863281 " fill-opacity="1" fill-rule="nonzero"/><path fill="#ececec" d="M 303.011719 422.726562 C 303.011719 422.726562 286.304688 430.710938 281.21875 434.324219 C 279.007812 435.894531 279.234375 443.851562 281.332031 443.839844 C 283.425781 443.824219 448.984375 443.839844 452.230469 442.910156 C 455.472656 441.984375 453.378906 434.011719 451.523438 432.621094 C 449.667969 431.230469 420.316406 422.261719 418.925781 421.796875 C 417.535156 421.332031 303.011719 422.726562 303.011719 422.726562 Z M 303.011719 422.726562 " fill-opacity="1" fill-rule="nonzero"/><path fill="#ffffff" d="M 207.347656 399.179688 C 217.746094 393.636719 228.335938 388.023438 239.898438 385.753906 C 265.058594 380.808594 290.199219 392.230469 315.546875 396.085938 C 325.851562 397.65625 336.304688 397.964844 346.726562 398.242188 C 360.691406 398.609375 373.941406 397.410156 387.757812 395.347656 C 397.863281 393.835938 408.542969 392.578125 418.625 390.925781 C 437.976562 387.753906 457.996094 388.75 476.9375 393.820312 C 486.039062 396.257812 492.40625 399.714844 499.160156 402.898438 C 499.160156 402.898438 503.359375 404.613281 502.550781 407.039062 C 501.742188 409.460938 497.910156 407.039062 492.460938 407.441406 C 487.011719 407.84375 481.691406 423.671875 435.195312 423.671875 C 388.695312 423.671875 271.648438 423.671875 271.648438 423.671875 C 271.648438 423.671875 248.664062 424.207031 235.304688 415.652344 C 221.941406 407.09375 218.832031 401.445312 214.398438 402.148438 C 209.960938 402.847656 206.226562 405.882812 204.125 403.78125 C 202.023438 401.679688 207.347656 399.179688 207.347656 399.179688 Z M 207.347656 399.179688 " fill-opacity="1" fill-rule="nonzero"/><path fill="#ececec" d="M 354.359375 403.972656 C 335.664062 405.460938 317.027344 402.632812 298.742188 398.964844 C 289.570312 397.125 280.445312 395.078125 271.277344 393.230469 C 266.730469 392.3125 262.148438 391.441406 257.507812 391.179688 C 253.082031 390.933594 248.644531 391.3125 244.285156 392.101562 C 234.351562 393.90625 224.972656 397.871094 215.71875 401.789062 C 215.132812 402.039062 215.015625 402.894531 215.300781 403.394531 C 215.644531 404.003906 216.324219 404.0625 216.90625 403.816406 C 225.097656 400.347656 233.382812 396.890625 242.09375 394.9375 C 246.371094 393.980469 250.730469 393.417969 255.117188 393.453125 C 259.792969 393.488281 264.40625 394.257812 268.984375 395.160156 C 287.101562 398.726562 305.054688 403.226562 323.414062 405.433594 C 333.675781 406.667969 344.042969 407.144531 354.359375 406.320312 C 355.855469 406.203125 355.867188 403.851562 354.359375 403.972656 Z M 354.359375 403.972656 " fill-opacity="1" fill-rule="nonzero"/><path fill="#ececec" d="M 495.953125 406.671875 C 481.597656 397.972656 464.75 394.648438 448.136719 394.347656 C 429.953125 394.019531 412.089844 397.140625 394.035156 399.824219 C 383.355469 401.410156 372.96875 402.707031 362.214844 403.757812 C 360.726562 403.90625 360.710938 406.253906 362.214844 406.105469 C 381.015625 404.265625 399.378906 401.585938 418.054688 398.886719 C 434.890625 396.453125 452.226562 395.449219 469.007812 398.875 C 478.074219 400.726562 486.839844 403.894531 494.769531 408.703125 C 496.066406 409.484375 497.246094 407.457031 495.953125 406.671875 Z M 495.953125 406.671875 " fill-opacity="1" fill-rule="nonzero"/><path fill="#ffffff" d="M 449.878906 434.472656 L 327.699219 434.472656 C 326.191406 434.472656 326.1875 436.824219 327.699219 436.824219 L 449.878906 436.824219 C 451.386719 436.824219 451.390625 434.472656 449.878906 434.472656 Z M 449.878906 434.472656 " fill-opacity="1" fill-rule="nonzero"/><path fill="#ffffff" d="M 317.59375 434.523438 L 297.402344 434.523438 C 295.890625 434.523438 295.890625 436.871094 297.402344 436.871094 L 317.59375 436.871094 C 319.101562 436.871094 319.105469 434.523438 317.59375 434.523438 Z M 317.59375 434.523438 " fill-opacity="1" fill-rule="nonzero"/><path fill="#5f7ab3" d="M 392.710938 432.929688 C 393.375 432.964844 390.800781 427.226562 390.132812 427.0625 C 386.992188 427.023438 355.492188 427.234375 354.777344 427.105469 C 354.066406 426.980469 351.539062 432.652344 352.320312 432.769531 C 353.101562 432.882812 392.046875 432.894531 392.710938 432.929688 Z M 392.710938 432.929688 " fill-opacity="1" fill-rule="nonzero"/><path fill="#5c8282" d="M 428.121094 455.6875 C 428.054688 453.53125 428.273438 451.082031 427.585938 449.007812 C 426.980469 447.175781 425.671875 445.65625 423.957031 444.777344 C 422.613281 444.089844 421.425781 446.117188 422.773438 446.804688 C 424.085938 447.476562 425.070312 448.582031 425.441406 450.027344 C 425.871094 451.703125 425.707031 453.613281 425.761719 455.332031 C 425.847656 458.050781 426.296875 462.683594 422.929688 463.722656 C 421.488281 464.171875 422.101562 466.4375 423.550781 465.988281 C 428.023438 464.605469 428.246094 459.582031 428.121094 455.6875 Z M 428.121094 455.6875 " fill-opacity="1" fill-rule="nonzero"/><path fill="#bb5122" d="M 426.617188 288.457031 C 426.617188 288.457031 408.886719 279.28125 402.542969 276.746094 C 395.148438 273.785156 389.605469 269.636719 381.742188 266.589844 C 377.957031 265.125 374.761719 265.601562 372.121094 266.742188 C 370.199219 266.53125 365.816406 266.171875 362.554688 267.734375 C 358.457031 269.691406 350.175781 276.414062 347.070312 278.65625 C 344.691406 280.378906 345.671875 286.117188 352.058594 283.089844 C 346.730469 286.898438 343.816406 289.691406 347.113281 291.972656 C 350.410156 294.257812 354.089844 291.214844 354.089844 291.214844 C 351.613281 292.824219 351.851562 296.796875 355.515625 297.238281 C 359.179688 297.679688 363.984375 294.261719 368.042969 290.960938 C 372.101562 287.660156 377.113281 290.390625 377.113281 290.390625 C 377.113281 290.390625 375.144531 290.960938 371.046875 293.398438 C 366.949219 295.835938 364.617188 300.960938 372.222656 300.578125 C 376.972656 300.34375 381.484375 296.0625 389.5625 300.105469 C 394.789062 302.71875 409.039062 315.316406 409.039062 315.316406 C 431.605469 320.066406 426.617188 288.457031 426.617188 288.457031 Z M 426.617188 288.457031 " fill-opacity="1" fill-rule="nonzero"/><path fill="#a54322" d="M 370.136719 280.890625 C 369.984375 280.335938 369.285156 279.828125 368.695312 280.070312 C 365.875 281.230469 363.558594 283.167969 361.171875 285.019531 C 358.554688 287.050781 356.378906 288.859375 353.761719 290.890625 C 353.261719 291.28125 352.421875 291.6875 352.828125 292.097656 C 353.324219 292.59375 355.367188 291.457031 355.902344 291.109375 C 358.421875 289.464844 359.964844 288.414062 362.425781 286.5 C 364.609375 284.808594 366.738281 283.394531 369.320312 282.332031 C 369.902344 282.09375 370.320312 281.554688 370.136719 280.890625 Z M 370.136719 280.890625 " fill-opacity="1" fill-rule="nonzero"/><path fill="#a54322" d="M 364.132812 273.183594 C 363.652344 272.703125 362.960938 272.777344 362.472656 273.183594 C 358.914062 276.15625 357.652344 277.601562 354.089844 280.574219 C 353.601562 280.980469 351.367188 283.34375 351.789062 283.761719 C 352.269531 284.246094 354.371094 282.683594 354.859375 282.277344 C 358.421875 279.304688 360.574219 277.816406 364.132812 274.84375 C 364.621094 274.441406 364.554688 273.605469 364.132812 273.183594 Z M 364.132812 273.183594 " fill-opacity="1" fill-rule="nonzero"/><path fill="#bb5122" d="M 405.238281 278.476562 L 443.179688 296.125 L 456.769531 269.039062 C 456.769531 269.039062 464.640625 250.652344 479.160156 261.386719 C 493.675781 272.125 497.464844 283.492188 497.464844 283.492188 C 497.464844 283.492188 491.785156 329.597656 467.167969 342.226562 C 442.550781 354.859375 404.679688 311.28125 404.679688 311.28125 Z M 405.238281 278.476562 " fill-opacity="1" fill-rule="nonzero"/><path fill="#a54322" d="M 456.410156 300.777344 C 452.4375 298.148438 448.289062 295.800781 443.996094 293.742188 C 443.425781 293.46875 442.726562 293.585938 442.390625 294.164062 C 442.089844 294.675781 442.238281 295.496094 442.8125 295.769531 C 447.105469 297.828125 451.253906 300.175781 455.226562 302.804688 C 456.488281 303.640625 457.667969 301.605469 456.410156 300.777344 Z M 456.410156 300.777344 " fill-opacity="1" fill-rule="nonzero"/></svg>